# This file uses centimeters as units for non-parametric coordinates.

g default
v 780.235559 -0.000003 -305.903141
v 746.272315 -0.000003 -348.772730
v 699.540130 -0.000003 -389.376122
v 640.838606 -0.000003 -427.018552
v 571.172143 -0.000003 -461.055960
v 491.732747 -0.000003 -490.906007
v 403.879711 -0.000003 -516.057884
v 309.116169 -0.000003 -536.081275
v 209.063559 -0.000003 -550.633539
v 105.433833 -0.000003 -559.465674
v 0.000108 -0.000003 -562.426626
v -105.433611 -0.000003 -559.465674
v -209.063338 -0.000003 -550.633539
v -309.115935 -0.000003 -536.081275
v -403.879477 -0.000003 -516.057902
v -491.732487 -0.000003 -490.906045
v -571.171831 -0.000003 -461.056016
v -640.838293 -0.000003 -427.018590
v -699.539817 -0.000003 -389.376160
v -746.272054 -0.000003 -348.772795
v -780.235299 -0.000003 -305.903216
v 780.235559 295.675093 -305.903141
v 746.272315 295.675093 -348.772730
v 699.540130 295.675093 -389.376122
v 640.838606 295.675093 -427.018552
v 571.172143 295.675093 -461.055960
v 491.732747 295.675093 -490.906007
v 403.879711 295.675093 -516.057884
v 309.116169 295.675093 -536.081275
v 209.063559 295.675093 -550.633539
v 105.433833 295.675093 -559.465674
v 0.000108 295.675093 -562.426626
v -105.433611 295.675093 -559.465674
v -209.063338 295.675093 -550.633539
v -309.115935 295.675093 -536.081275
v -403.879477 295.675093 -516.057902
v -491.732487 295.675093 -490.906045
v -571.171831 295.675093 -461.056016
v -640.838293 295.675093 -427.018590
v -699.539817 295.675093 -389.376160
v -746.272054 295.675093 -348.772795
v -780.235299 295.675093 -305.903216
vt 0.994642 0.416803
vt 0.994642 0.583197
vt 0.956875 0.583197
vt 0.956875 0.416803
vt 0.916545 0.583197
vt 0.916545 0.416803
vt 0.873282 0.583197
vt 0.873282 0.416803
vt 0.826966 0.583197
vt 0.826966 0.416803
vt 0.043125 0.416803
vt 0.043125 0.583197
vt 0.005358 0.583197
vt 0.005358 0.416803
vt 0.083455 0.416803
vt 0.083455 0.583197
vt 0.126718 0.416803
vt 0.126718 0.583197
vt 0.173034 0.416803
vt 0.173034 0.583197
vt 0.777689 0.583197
vt 0.777689 0.416803
vt 0.725711 0.583197
vt 0.725711 0.416803
vt 0.671426 0.583197
vt 0.671426 0.416803
vt 0.615328 0.583197
vt 0.615328 0.416803
vt 0.557982 0.583197
vt 0.557981 0.416803
vt 0.500000 0.583197
vt 0.500000 0.416803
vt 0.442018 0.583197
vt 0.442018 0.416803
vt 0.384672 0.583197
vt 0.384672 0.416803
vt 0.328574 0.583197
vt 0.328574 0.416803
vt 0.274289 0.583197
vt 0.274289 0.416803
vt 0.222311 0.583197
vt 0.222311 0.416803
vn -0.783825 0.000000 0.620982
vn -0.783825 0.000000 0.620982
vn -0.718967 0.000000 0.695044
vn -0.718967 0.000000 0.695044
vn -0.718967 0.000000 0.695044
vn -0.718967 0.000000 0.695044
vn -0.595949 0.000000 0.803022
vn -0.595949 0.000000 0.803022
vn -0.595949 0.000000 0.803022
vn -0.595949 0.000000 0.803022
vn -0.487535 0.000000 0.873103
vn -0.487535 0.000000 0.873103
vn -0.487535 0.000000 0.873103
vn -0.487535 0.000000 0.873103
vn -0.393841 0.000000 0.919179
vn -0.393841 0.000000 0.919179
vn -0.393841 0.000000 0.919179
vn -0.393841 0.000000 0.919179
vn -0.312329 0.000000 0.949974
vn -0.312329 0.000000 0.949974
vn -0.312329 0.000000 0.949974
vn -0.312329 0.000000 0.949974
vn -0.240139 0.000000 0.970739
vn -0.240139 0.000000 0.970739
vn -0.240139 0.000000 0.970739
vn -0.240139 0.000000 0.970739
vn -0.174747 0.000000 0.984613
vn -0.174747 0.000000 0.984613
vn -0.174747 0.000000 0.984613
vn -0.174747 0.000000 0.984613
vn -0.114059 0.000000 0.993474
vn -0.114059 0.000000 0.993474
vn -0.114059 0.000000 0.993474
vn -0.114059 0.000000 0.993474
vn -0.056320 0.000000 0.998413
vn -0.056320 0.000000 0.998413
vn -0.056320 0.000000 0.998413
vn -0.056320 0.000000 0.998413
vn 0.000000 0.000000 1.000000
vn 0.000000 0.000000 1.000000
vn 0.000000 0.000000 1.000000
vn 0.000000 0.000000 1.000000
vn 0.056320 0.000000 0.998413
vn 0.056320 0.000000 0.998413
vn 0.056320 0.000000 0.998413
vn 0.056320 0.000000 0.998413
vn 0.114059 0.000000 0.993474
vn 0.114059 0.000000 0.993474
vn 0.114059 0.000000 0.993474
vn 0.114059 0.000000 0.993474
vn 0.174747 0.000000 0.984613
vn 0.174747 0.000000 0.984613
vn 0.174747 0.000000 0.984613
vn 0.174747 0.000000 0.984613
vn 0.240139 0.000000 0.970739
vn 0.240139 0.000000 0.970739
vn 0.240139 0.000000 0.970739
vn 0.240139 0.000000 0.970739
vn 0.312329 0.000000 0.949974
vn 0.312329 0.000000 0.949974
vn 0.312329 0.000000 0.949974
vn 0.312329 0.000000 0.949974
vn 0.393841 0.000000 0.919179
vn 0.393841 0.000000 0.919179
vn 0.393841 0.000000 0.919179
vn 0.393841 0.000000 0.919179
vn 0.487535 0.000000 0.873103
vn 0.487535 0.000000 0.873103
vn 0.487535 0.000000 0.873103
vn 0.487535 0.000000 0.873103
vn 0.595949 0.000000 0.803022
vn 0.595949 0.000000 0.803022
vn 0.595949 0.000000 0.803022
vn 0.595949 0.000000 0.803022
vn 0.718967 0.000000 0.695044
vn 0.718967 0.000000 0.695044
vn 0.718967 0.000000 0.695044
vn 0.718967 0.000000 0.695044
vn 0.783825 0.000000 0.620982
vn 0.783825 0.000000 0.620982
s off
g BackScreen_NonFlippedEmissives
f 1/1/1 22/2/2 23/3/3 2/4/4
f 2/4/5 23/3/6 24/5/7 3/6/8
f 3/6/9 24/5/10 25/7/11 4/8/12
f 4/8/13 25/7/14 26/9/15 5/10/16
f 5/10/17 26/9/18 27/21/19 6/22/20
f 6/22/21 27/21/22 28/23/23 7/24/24
f 7/24/25 28/23/26 29/25/27 8/26/28
f 8/26/29 29/25/30 30/27/31 9/28/32
f 9/28/33 30/27/34 31/29/35 10/30/36
f 10/30/37 31/29/38 32/31/39 11/32/40
f 11/32/41 32/31/42 33/33/43 12/34/44
f 12/34/45 33/33/46 34/35/47 13/36/48
f 13/36/49 34/35/50 35/37/51 14/38/52
f 14/38/53 35/37/54 36/39/55 15/40/56
f 15/40/57 36/39/58 37/41/59 16/42/60
f 16/42/61 37/41/62 38/20/63 17/19/64
f 17/19/65 38/20/66 39/18/67 18/17/68
f 18/17/69 39/18/70 40/16/71 19/15/72
f 19/15/73 40/16/74 41/12/75 20/11/76
f 20/11/77 41/12/78 42/13/79 21/14/80
