# This file uses centimeters as units for non-parametric coordinates.

g default
v -46.436272 15.273893 -136.061447
v -90.862335 15.273893 -126.921989
v -129.272461 15.273893 -108.774841
v -176.320007 15.273895 -78.895111
v -319.047699 15.273895 -167.680542
v -259.580322 15.273895 -213.470947
v -306.103607 15.273895 -112.748474
v -245.536270 15.273895 -75.870575
v -290.914154 15.273895 -205.029984
v -0.000000 15.274083 -139.304764
v -319.764648 15.273895 -138.838272
v -279.056244 15.273895 -87.758499
v -209.772003 15.273895 -73.297806
v -308.829895 15.273895 -189.381226
v -151.972260 15.273895 -92.347626
v -110.183304 15.273893 -118.752914
v -70.889473 15.273893 -132.181213
v -23.310509 15.273893 -138.178070
v -192.388824 15.273895 -74.172905
v -227.750351 15.273895 -74.044563
v -263.106262 15.273895 -80.020508
v -293.984314 15.273895 -98.805405
v -314.688660 15.273895 -125.162170
v -321.359985 15.273895 -153.342163
v -163.666245 15.273895 -84.939194
v -140.585831 15.273895 -100.503372
v 46.436272 15.273893 -136.061447
v 90.862335 15.273893 -126.921982
v 129.272461 15.273893 -108.774834
v 176.320007 15.273895 -78.895111
v 319.047699 15.273895 -167.680542
v 259.580322 15.273895 -213.470947
v 306.103607 15.273895 -112.748474
v 245.536270 15.273895 -75.870575
v 290.914154 15.273895 -205.029984
v 319.764648 15.273895 -138.838272
v 279.056244 15.273895 -87.758499
v 209.772003 15.273895 -73.297806
v 308.829895 15.273895 -189.381226
v 151.972260 15.273895 -92.347626
v 110.183304 15.273893 -118.752922
v 70.889473 15.273893 -132.181213
v 23.310509 15.273893 -138.178070
v 192.388824 15.273895 -74.172905
v 227.750351 15.273895 -74.044563
v 263.106262 15.273895 -80.020508
v 293.984314 15.273895 -98.805405
v 314.688660 15.273895 -125.162170
v 321.359985 15.273895 -153.342163
v 163.666245 15.273895 -84.939194
v 140.585831 15.273895 -100.503372
v -46.436272 101.751534 -136.061478
v -70.893349 101.751556 -132.187073
v -90.862335 101.751534 -126.922020
v -110.155518 101.751274 -118.723938
v -129.272476 101.751534 -108.774841
v -140.600159 101.752060 -100.666206
v -176.425781 101.755402 -79.520874
v -192.471069 101.755714 -74.821571
v -318.372803 101.755806 -167.493454
v -308.205444 101.755760 -189.088257
v -259.248718 101.753036 -212.854156
v -305.802490 101.754036 -113.023117
v -314.252380 101.754402 -125.333389
v -245.398041 101.754539 -76.348091
v -262.929779 101.754234 -80.432617
v -290.410919 101.755424 -204.628052
v -0.000000 101.751717 -139.304520
v -23.310226 101.751511 -138.177032
v -319.211090 101.754829 -138.889343
v -320.718750 101.755402 -153.277542
v -278.844147 101.754112 -88.123413
v -293.736664 101.753944 -99.119644
v -209.792618 101.755516 -73.883743
v -227.685852 101.755058 -74.615829
v -152.033142 101.753410 -92.673874
v -163.769211 101.754662 -85.434654
v 23.310226 101.751511 -138.177032
v 90.862335 101.751534 -126.922020
v 70.893349 101.751556 -132.187073
v 129.272476 101.751534 -108.774834
v 110.155518 101.751274 -118.723938
v 152.033142 101.753410 -92.673874
v 163.769211 101.754662 -85.434654
v 209.792618 101.755516 -73.883743
v 227.685852 101.755058 -74.615829
v 290.410919 101.754707 -204.628052
v 308.205444 101.755760 -189.088257
v 319.211090 101.754951 -138.889343
v 314.252380 101.754326 -125.333389
v 278.844147 101.754112 -88.123413
v 262.929779 101.754234 -80.432617
v 259.248718 101.753036 -212.854156
v 320.718750 101.755470 -153.277542
v 293.736664 101.753944 -99.119644
v 192.471069 101.755714 -74.821571
v 318.372803 101.755806 -167.493454
v 140.600159 101.752060 -100.666206
v 46.436272 101.751534 -136.061478
v 176.425781 101.755402 -79.520874
v 245.398041 101.754585 -76.348091
v 305.802490 101.753998 -113.023117
vt 1.000000 0.750000
vt 0.427173 0.250000
vt 0.402593 0.750000
vt 0.378404 0.250000
vt 0.353798 0.750000
vt 0.321517 0.250000
vt 0.305675 0.750000
vt 0.253258 0.250000
vt 0.234783 0.750000
vt 0.057439 0.250000
vt 0.033143 0.750000
vt 0.126562 0.250000
vt 0.111687 0.750000
vt 0.198013 0.250000
vt 0.179866 0.750000
vt 0.033143 0.250000
vt 0.000000 0.250000
vt 0.499990 0.250000
vt 0.476041 0.750000
vt 0.111687 0.250000
vt 0.096793 0.750000
vt 0.179866 0.250000
vt 0.160857 0.750000
vt 0.271546 0.250000
vt 0.253258 0.750000
vt 0.081965 0.250000
vt 0.057439 0.750000
vt 0.337654 0.250000
vt 0.321517 0.750000
vt 0.378404 0.750000
vt 0.402593 0.250000
vt 0.427173 0.750000
vt 0.451866 0.250000
vt 0.476041 0.250000
vt 0.451866 0.750000
vt 0.289910 0.250000
vt 0.271546 0.750000
vt 0.234783 0.250000
vt 0.216495 0.750000
vt 0.216495 0.250000
vt 0.198013 0.750000
vt 0.160857 0.250000
vt 0.141952 0.750000
vt 0.141952 0.250000
vt 0.126562 0.750000
vt 0.096793 0.250000
vt 0.081965 0.750000
vt 0.305675 0.250000
vt 0.289910 0.750000
vt 0.337654 0.750000
vt 0.353798 0.250000
vt 0.597388 0.250000
vt 0.572808 0.750000
vt 0.646183 0.250000
vt 0.621576 0.750000
vt 0.694305 0.250000
vt 0.678464 0.750000
vt 0.765199 0.250000
vt 0.746723 0.750000
vt 0.966853 0.250000
vt 0.942554 0.750000
vt 0.888301 0.250000
vt 0.873425 0.750000
vt 0.820118 0.250000
vt 0.801970 0.750000
vt 1.000000 0.250000
vt 0.966853 0.750000
vt 0.523939 0.250000
vt 0.499990 0.750000
vt 0.903196 0.250000
vt 0.888301 0.750000
vt 0.839128 0.250000
vt 0.820118 0.750000
vt 0.746723 0.250000
vt 0.728435 0.750000
vt 0.942554 0.250000
vt 0.918026 0.750000
vt 0.678464 0.250000
vt 0.662326 0.750000
vt 0.597388 0.750000
vt 0.621576 0.250000
vt 0.548115 0.750000
vt 0.572808 0.250000
vt 0.548115 0.250000
vt 0.523939 0.750000
vt 0.728435 0.250000
vt 0.710071 0.750000
vt 0.783488 0.250000
vt 0.765199 0.750000
vt 0.801970 0.250000
vt 0.783488 0.750000
vt 0.858034 0.250000
vt 0.839128 0.750000
vt 0.873425 0.250000
vt 0.858034 0.750000
vt 0.918026 0.250000
vt 0.903196 0.750000
vt 0.710071 0.250000
vt 0.694305 0.750000
vt 0.646183 0.750000
vt 0.662326 0.250000
vt 0.000000 0.750000
vn 0.201502 0.000038 0.979488
vn 0.201504 0.000038 0.979488
vn 0.323871 -0.000090 0.946101
vn 0.323871 -0.000090 0.946101
vn 0.427184 -0.000220 0.904165
vn 0.427177 -0.000220 0.904168
vn 0.512409 0.000184 0.858742
vn 0.512408 0.000184 0.858742
vn 0.554210 0.003542 0.832370
vn 0.554254 0.003540 0.832340
vn 0.479173 0.005468 0.877704
vn 0.479064 0.005470 0.877763
vn 0.004740 0.006931 0.999965
vn 0.004728 0.006931 0.999965
vn -0.070395 0.006426 0.997499
vn -0.070406 0.006426 0.997498
vn -0.798907 0.007814 -0.601404
vn -0.798649 0.007814 -0.601746
vn -0.437677 0.007280 -0.899103
vn -0.438417 0.007281 -0.898742
vn -0.886858 0.005429 0.462011
vn -0.886817 0.005429 0.462088
vn -0.973645 0.006385 0.227980
vn -0.973676 0.006386 0.227848
vn -0.333189 0.005256 0.942845
vn -0.333145 0.005256 0.942861
vn -0.519182 0.004898 0.854650
vn -0.519174 0.004898 0.854655
vn -0.257678 0.006935 -0.966206
vn -0.257678 0.006935 -0.966206
vn -0.000000 -0.000007 1.000000
vn -0.000000 -0.000007 1.000000
vn 0.069672 -0.000007 0.997570
vn 0.069672 -0.000007 0.997570
vn -0.999608 0.007367 -0.027020
vn -0.999605 0.007368 -0.027110
vn -0.678572 0.004711 0.734519
vn -0.678535 0.004711 0.734553
vn 0.165778 0.007315 0.986136
vn 0.165825 0.007315 0.986128
vn -0.944260 0.007962 -0.329103
vn -0.944247 0.007962 -0.329143
vn 0.581903 0.001686 0.813256
vn 0.581908 0.001685 0.813253
vn 0.124974 0.000016 0.992160
vn 0.124974 0.000016 0.992160
vn 0.348832 0.006942 0.937159
vn 0.348962 0.006941 0.937111
vn -0.164722 0.005797 0.986323
vn -0.164778 0.005797 0.986314
vn -0.786938 0.004790 0.617013
vn -0.786921 0.004790 0.617035
vn -0.201502 0.000038 0.979488
vn -0.323871 -0.000090 0.946101
vn -0.323871 -0.000090 0.946101
vn -0.201504 0.000038 0.979488
vn -0.427184 -0.000220 0.904165
vn -0.512408 0.000184 0.858742
vn -0.512409 0.000184 0.858742
vn -0.427177 -0.000220 0.904168
vn -0.554210 0.003542 0.832370
vn -0.479064 0.005470 0.877763
vn -0.479173 0.005468 0.877704
vn -0.554254 0.003540 0.832340
vn -0.004740 0.006931 0.999965
vn 0.070406 0.006426 0.997498
vn 0.070395 0.006426 0.997499
vn -0.004728 0.006931 0.999965
vn 0.798907 0.007814 -0.601404
vn 0.438418 0.007281 -0.898742
vn 0.437677 0.007280 -0.899103
vn 0.798651 0.007813 -0.601744
vn 0.886858 0.005429 0.462011
vn 0.973676 0.006386 0.227848
vn 0.973645 0.006385 0.227980
vn 0.886818 0.005428 0.462088
vn 0.333189 0.005256 0.942845
vn 0.519174 0.004898 0.854655
vn 0.519182 0.004898 0.854650
vn 0.333145 0.005256 0.942861
vn 0.257678 0.006935 -0.966206
vn 0.257678 0.006935 -0.966206
vn -0.069672 -0.000007 0.997570
vn -0.069672 -0.000007 0.997570
vn 0.999605 0.007367 -0.027110
vn 0.999608 0.007367 -0.027020
vn 0.678535 0.004711 0.734553
vn 0.678572 0.004711 0.734519
vn -0.165778 0.007315 0.986136
vn -0.165825 0.007315 0.986128
vn 0.944260 0.007962 -0.329103
vn 0.944247 0.007962 -0.329143
vn -0.581903 0.001686 0.813257
vn -0.581908 0.001685 0.813253
vn -0.124974 0.000016 0.992160
vn -0.124974 0.000016 0.992160
vn -0.348832 0.006942 0.937159
vn -0.348962 0.006941 0.937111
vn 0.164778 0.005797 0.986314
vn 0.164722 0.005797 0.986323
vn 0.786921 0.004790 0.617035
vn 0.786938 0.004790 0.617014
s 1
g DeskBannerGeneric Emissives
f 17/2/1 53/32/2 54/3/3 2/31/4
f 16/4/5 55/30/6 56/5/7 3/51/8
f 15/6/9 76/29/10 77/7/11 25/48/12
f 13/8/13 74/25/14 75/9/15 20/38/16
f 14/10/17 61/27/18 67/11/19 9/16/20
f 23/12/21 64/45/22 70/13/23 11/20/24
f 21/14/25 66/41/26 72/15/27 12/22/28
f 9/16/20 67/11/19 62/102/29 6/17/30
f 10/18/31 68/69/32 69/19/33 18/34/34
f 11/20/24 70/13/23 71/21/35 24/46/36
f 12/22/28 72/15/27 73/23/37 22/42/38
f 19/24/39 59/37/40 74/25/14 13/8/13
f 5/26/41 60/47/42 61/27/18 14/10/17
f 26/28/43 57/50/44 76/29/10 15/6/9
f 54/3/3 55/30/6 16/4/5 2/31/4
f 52/35/45 53/32/2 17/2/1 1/33/46
f 18/34/34 69/19/33 52/35/45 1/33/46
f 4/36/47 58/49/48 59/37/40 19/24/39
f 20/38/16 75/9/15 65/39/49 8/40/50
f 8/40/50 65/39/49 66/41/26 21/14/25
f 22/42/38 73/23/37 63/43/51 7/44/52
f 7/44/52 63/43/51 64/45/22 23/12/21
f 24/46/36 71/21/35 60/47/42 5/26/41
f 25/48/12 77/7/11 58/49/48 4/36/47
f 56/5/7 57/50/44 26/28/43 3/51/8
f 42/83/53 28/52/54 79/80/55 80/53/56
f 41/81/57 29/54/58 81/100/59 82/55/60
f 40/78/61 50/56/62 84/99/63 83/57/64
f 38/74/65 45/58/66 86/89/67 85/59/68
f 39/76/69 35/60/70 87/67/71 88/61/72
f 48/94/73 36/62/74 89/71/75 90/63/76
f 46/90/77 37/64/78 91/73/79 92/65/80
f 35/60/70 32/66/81 93/1/82 87/67/71
f 10/18/31 43/68/83 78/85/84 68/69/32
f 36/62/74 49/70/85 94/97/86 89/71/75
f 37/64/78 47/72/87 95/93/88 91/73/79
f 44/86/89 38/74/65 85/59/68 96/75/90
f 31/96/91 39/76/69 88/61/72 97/77/92
f 51/101/93 40/78/61 83/57/64 98/79/94
f 79/80/55 28/52/54 41/81/57 82/55/60
f 99/82/95 27/84/96 42/83/53 80/53/56
f 43/68/83 27/84/96 99/82/95 78/85/84
f 30/98/97 44/86/89 96/75/90 100/87/98
f 45/58/66 34/88/99 101/91/100 86/89/67
f 34/88/99 46/90/77 92/65/80 101/91/100
f 47/72/87 33/92/101 102/95/102 95/93/88
f 33/92/101 48/94/73 90/63/76 102/95/102
f 49/70/85 31/96/91 97/77/92 94/97/86
f 50/56/62 30/98/97 100/87/98 84/99/63
f 81/100/59 29/54/58 51/101/93 98/79/94
