# This file uses centimeters as units for non-parametric coordinates.

g default
v -329.133179 101.373230 -69.171051
v -328.751312 102.406296 -69.421593
v -382.428314 102.409622 -134.318710
v -382.760040 101.349815 -133.955826
v -327.774872 102.813271 -69.666466
v -382.107208 102.813301 -135.290894
v -327.275757 101.354568 -68.304214
v -328.304779 101.363998 -68.531723
v -327.332581 102.399979 -68.757401
v 324.951508 102.406303 -68.758141
v 325.385590 102.813271 -69.666466
v 324.901062 101.373230 -68.304214
v 326.753204 101.354568 -69.182281
v 325.921753 101.363899 -68.534676
v 326.367859 102.399963 -69.427475
v 380.044403 102.416962 -134.326263
v 379.717926 102.813301 -135.290894
v 380.380829 101.370872 -133.968033
v -383.461395 101.370872 -135.887238
v -382.973633 102.417030 -135.825974
v -383.045074 102.397026 -223.889175
v -383.461395 101.391968 -223.889175
v -382.040070 102.813332 -223.889175
v -383.280701 101.360237 -134.864136
v 381.072113 101.349815 -135.903076
v 380.894043 101.360298 -134.871384
v 380.585022 102.409676 -135.835190
v 380.655792 102.397026 -223.889175
v 379.650787 102.813332 -223.889175
v 381.072113 101.391968 -223.889175
v -382.040070 101.391968 -225.310547
v -382.039825 102.397026 -224.894257
v -326.419067 102.417397 -224.892975
v -326.424561 101.460167 -225.310547
v -326.352753 102.813332 -223.889175
v -383.045074 101.391678 -224.894257
v -383.045074 -1.827605 -224.894287
v -383.461395 -1.827607 -223.889206
v -382.040070 -1.827605 -225.310577
v 379.650543 102.397026 -224.894257
v 324.064636 102.397018 -224.894073
v 323.963470 102.813332 -223.889175
v 379.650787 101.391968 -225.310547
v 324.103485 101.391968 -225.310547
v 380.655792 101.392105 -224.894257
v 380.655792 -1.827605 -224.894287
v 379.650787 -1.827605 -225.310577
v 381.072113 -1.827607 -223.889206
v 291.191406 -1.827637 -128.437546
v 290.415741 -1.827637 -127.752274
v 290.410522 101.366173 -127.755241
v 291.199280 101.374619 -128.448868
v 289.410675 -1.827637 -127.505035
v 289.383057 101.357330 -127.505005
v 291.528320 102.391922 -128.221207
v 316.110962 102.383659 -163.703934
v 315.786102 101.346428 -163.928757
v 289.383057 102.386864 -127.104691
v -291.786163 101.374619 -127.505005
v -291.786163 102.391922 -127.104691
v -293.917603 102.391922 -128.221207
v -293.588562 101.374619 -128.448868
v -318.184845 101.369186 -163.942429
v -318.509735 102.390327 -163.717606
v -292.803467 101.374672 -127.755272
v -292.805023 -1.827637 -127.752274
v -293.580688 -1.827637 -128.437546
v -291.799957 -1.827637 -127.505035
v -319.287476 102.390343 -165.815857
v -318.894287 101.369186 -165.857529
v -324.931549 101.460167 -223.964630
v -325.347473 102.417374 -223.927292
v -318.660461 101.368759 -164.855179
v -318.662445 -1.827625 -164.854462
v -318.892548 -1.827625 -165.841034
v -318.194305 -1.827625 -163.956100
v 316.503265 -1.827625 -165.841034
v 316.273163 -1.827625 -164.854462
v 316.268768 101.357574 -164.851639
v 316.505005 101.369186 -165.857529
v 315.805023 -1.827625 -163.956100
v 316.898193 102.390343 -165.815857
v 322.953522 102.397018 -223.892761
v 322.535248 101.391968 -223.896790
v -325.419495 101.460968 -224.924377
v -325.419495 -1.827605 -224.924408
v -326.424561 -1.827605 -225.310577
v -324.931549 -1.827607 -223.964661
v 323.047791 101.392090 -224.904938
v 323.030212 -1.827605 -224.924408
v 322.542267 -1.827607 -223.964661
v 324.035278 -1.827605 -225.310577
v 291.260956 102.813301 -126.138222
v 289.383057 102.813301 -126.138222
v -291.786163 102.813301 -126.138222
v -293.650238 102.813301 -126.138222
v -294.711700 102.813301 -127.671234
v -319.293884 102.813301 -163.174515
v -320.090729 102.813316 -164.325348
v 317.701447 102.813316 -164.325348
v 316.895172 102.813301 -163.160843
v 292.322418 102.813301 -127.671234
v -320.236969 102.813316 -165.716354
v 317.847687 102.813316 -165.716354
v -328.182922 102.215637 -68.791733
v 325.799316 102.215599 -68.794388
v -382.986237 102.226143 -134.970337
v 380.599396 102.226173 -134.977081
v -382.860535 102.212128 -224.709488
v 380.471252 102.212303 -224.709488
v 290.596191 102.389442 -127.400703
v -292.989105 102.391945 -127.400719
v -319.031036 102.390213 -164.717804
v 316.639374 102.386948 -164.714325
v -325.594818 102.241859 -224.730026
v 323.217957 102.212364 -224.716293
v 322.892853 102.813271 -74.966469
v 294.037689 102.813301 -120.838219
v 289.383057 102.813301 -120.838219
v -291.786163 102.813301 -120.838219
v -296.426971 102.813301 -120.838219
v -325.282135 102.813271 -74.966469
v -299.069122 102.813301 -124.654160
v -323.651306 102.813301 -160.157425
v -325.219940 102.813316 -162.422882
v -376.805756 102.813301 -137.198425
v 374.416473 102.813301 -137.198425
v 322.830658 102.813316 -162.422943
v 321.252625 102.813301 -160.143799
v 296.679840 102.813301 -124.654152
v -325.507935 102.813316 -165.162216
v -331.124756 102.813332 -218.589172
v -376.744080 102.813332 -218.589172
v 328.735474 102.813332 -218.589172
v 374.354797 102.813332 -218.589172
v 323.118652 102.813316 -165.162216
vt 0.983550 0.013035
vt 1.000000 0.009974
vt 1.000000 0.989782
vt 0.983282 0.987258
vt 1.000000 0.010456
vt 1.000000 0.001851
vt 1.000000 0.997150
vt 0.375000 0.250000
vt 0.375545 0.250000
vt 0.623498 0.250000
vt 0.625000 0.250000
vt 0.375629 0.245834
vt 0.624379 0.245887
vt 0.624449 0.250000
vt 0.000000 0.001851
vt -0.000000 0.009914
vt -0.000000 0.982108
vt 0.000000 0.997150
vt -0.000000 0.009991
vt 0.016663 0.013204
vt 0.016477 0.987441
vt -0.000000 0.989770
vt 0.983523 0.011978
vt 1.000000 0.009764
vt 1.000000 0.990603
vt 0.983763 0.984295
vt 1.000000 0.008239
vt 1.000000 0.000000
vt 1.000000 0.977010
vt 0.000000 0.000000
vt -0.000000 0.009775
vt -0.000000 0.990603
vt 0.000000 0.977009
vt 0.016718 0.012153
vt 0.016237 0.984295
vt 0.983763 1.000000
vt 0.992843 0.989866
vt 0.993066 0.989790
vt 0.984543 1.000000
vt 1.000000 0.976507
vt 0.990297 1.000000
vt 0.000000 1.000000
vt 0.000000 0.984295
vt 0.000000 1.000000
vt 0.007157 0.989866
vt 0.007160 0.989622
vt 0.000000 0.976507
vt 0.016237 1.000000
vt 0.016237 1.000000
vt 0.009700 1.000000
vt 1.000000 1.000000
vt 1.000000 1.000000
vt 1.000000 0.984295
vt 1.000000 0.024997
vt 1.000000 0.000000
vt 0.012447 -0.000000
vt 0.016434 0.025302
vt 0.624258 0.000000
vt 0.624240 0.245842
vt 0.629668 0.246888
vt -0.000000 -0.000000
vt 0.005848 0.996894
vt 0.016757 0.976405
vt 0.623909 0.247150
vt 0.375751 0.245891
vt 0.376081 0.247180
vt 0.994136 0.015352
vt 0.983565 0.025302
vt 0.983503 0.976771
vt 1.000000 1.000000
vt 0.992261 -0.000000
vt 0.375000 0.000000
vt 0.000000 0.024997
vt 0.375000 0.246905
vt 0.375742 0.000000
vt 0.994305 0.007509
vt 0.983503 0.017332
vt 0.984542 0.977754
vt 0.994524 0.977120
vt 0.988068 0.011932
vt 0.000000 1.000000
vt 0.000000 0.017058
vt 0.988068 1.000000
vt -0.000000 0.977138
vt 1.000000 0.017058
vt 1.000000 0.000000
vt 0.012022 -0.000000
vt 0.016497 0.017331
vt 1.000000 0.977137
vt 0.012022 0.987978
vt 0.005704 0.007371
vt 0.005677 0.976546
vt 0.016237 0.976633
vt 0.984593 0.992185
vt 0.000000 1.000000
vt 0.000000 1.000000
vt -0.000000 0.977754
vt 0.016189 0.991810
vt 1.000000 1.000000
vt 1.000000 0.977754
vt 1.000000 1.000000
vt 0.376408 0.248315
vt 0.623584 0.248292
vt 1.000000 0.001021
vt 1.000000 1.000000
vt 1.000000 0.000000
vt -0.000000 -0.000000
vt -0.000000 1.000000
vt -0.000000 0.000790
vt 0.375000 0.250000
vt 0.375000 0.250000
vt 0.989750 -0.000000
vt 1.000000 0.000000
vt 0.371156 0.247437
vt -0.000000 0.000495
vt 0.000000 0.000000
vt 0.625000 0.247437
vt 0.625000 0.250000
vt 0.006406 -0.000000
vt 1.000000 0.998453
vt 1.000000 1.000000
vt 0.989891 -0.000000
vt 1.000000 0.000000
vt 0.989891 0.989891
vt -0.000000 -0.000000
vt 0.000000 0.000000
vt 0.010108 1.000000
vt 0.000000 1.000000
vt 0.010108 0.010108
vt 1.000000 1.000000
vt 0.000000 1.000000
vt 0.624878 0.249991
vt 0.624971 0.250000
vt 0.624984 0.250000
vt 0.625000 0.250000
vt 0.000000 0.000000
vt 1.000000 0.000000
vt 1.002255 -0.005903
vt 0.375084 0.250041
vt 0.375000 0.250000
vt 1.000000 0.000000
vt 1.000356 0.000524
vt 1.000000 0.000416
vt 1.000000 0.000240
vt 1.000000 1.000000
vt -0.000386 0.000370
vt 0.000000 0.000000
vt 0.000000 1.000000
vt 0.001578 0.999162
vt 1.000000 1.000000
vt 0.000000 1.000000
vt 0.623584 0.248292
vt 0.624943 0.250000
vt 0.376408 0.248315
vt 0.375068 0.250000
vt 0.625000 0.250000
vt 0.375000 0.250000
vt 1.000000 0.000000
vt 1.000000 0.000000
vt 1.000000 0.000000
vt 1.000000 1.000000
vt 1.000000 1.000000
vt 1.000000 1.000000
vt 1.000000 0.001851
vt 1.000000 0.997150
vt 0.000000 1.000000
vt -0.000000 1.000000
vt 0.000000 1.000000
vt -0.000000 -0.000000
vt 0.000000 0.000000
vt 0.000000 0.000000
vt 0.000000 0.997150
vt 0.000000 0.001851
vt 1.000000 0.001021
vt 1.000000 0.001349
vt 1.000000 0.976507
vt 1.000000 0.977010
vt 1.000000 0.000000
vt 0.000000 0.976507
vt 0.000000 0.977009
vt -0.000000 0.000790
vt 0.000000 0.001348
vt 0.000000 0.000000
vn -0.768606 0.004600 0.639705
vn -0.534993 0.718290 0.444794
vn -0.530398 0.726197 0.437398
vn -0.771596 0.004600 0.636097
vn -0.000800 0.999968 0.008000
vn -0.006200 0.999978 0.002200
vn -0.000200 0.721409 0.692509
vn 0.000200 0.720625 0.693325
vn 0.000800 0.999968 0.008000
vn -0.000400 0.004500 0.999990
vn 0.000400 0.004500 0.999990
vn 0.534132 0.719343 0.444127
vn 0.530808 0.725711 0.437706
vn 0.006300 0.999978 0.002200
vn 0.768606 0.004600 0.639705
vn 0.771645 0.004600 0.636037
vn -0.999988 0.004500 0.002000
vn -0.674119 0.738621 0.001200
vn -0.717673 0.696374 -0.003000
vn -0.999980 0.004300 -0.004600
vn -0.008000 0.999955 -0.005100
vn 0.676000 0.736900 0.001200
vn 0.720180 0.693781 -0.003000
vn 0.008000 0.999955 -0.005100
vn 0.999988 0.004500 0.002000
vn 0.999980 0.004300 -0.004700
vn -0.007300 0.004000 -0.999965
vn -0.005200 0.715595 -0.698496
vn 0.004100 0.721599 -0.692299
vn 0.006800 0.004000 -0.999969
vn 0.004800 0.999976 -0.005100
vn -0.707104 0.002700 -0.707104
vn -0.707107 0.000000 -0.707107
vn -0.999989 0.000000 -0.004700
vn -0.007400 0.000000 -0.999973
vn 0.005000 0.707098 -0.707098
vn -0.004700 0.718407 -0.695607
vn -0.004800 0.999976 -0.005100
vn 0.007300 0.004000 -0.999965
vn -0.006900 0.004000 -0.999968
vn 0.707104 0.002700 -0.707104
vn 0.707107 0.000000 -0.707107
vn 0.007400 0.000000 -0.999973
vn 0.999989 0.000000 -0.004700
vn -0.818710 0.000000 -0.574207
vn -0.462508 0.000000 -0.886615
vn -0.463614 0.004400 -0.886027
vn -0.818704 0.003800 -0.574203
vn -0.000500 0.000000 -1.000000
vn -0.000500 0.003800 -0.999993
vn -0.596080 0.684877 -0.419086
vn -0.601206 0.683607 -0.413804
vn -0.823581 0.003800 -0.567187
vn -0.000400 0.686720 -0.726922
vn 0.000500 0.003800 -0.999993
vn 0.000400 0.686720 -0.726922
vn 0.594019 0.687622 -0.417513
vn 0.818704 0.003800 -0.574203
vn 0.823581 0.003800 -0.567187
vn 0.599002 0.686503 -0.412202
vn 0.463890 0.004400 -0.885882
vn 0.463895 0.000000 -0.885890
vn 0.818710 0.000000 -0.574207
vn 0.000500 0.000000 -1.000000
vn 0.706009 0.704209 -0.075101
vn 0.994412 0.003900 -0.105501
vn 0.993946 0.003900 -0.109805
vn 0.699900 0.710100 -0.076800
vn 0.937707 0.004100 -0.347403
vn 0.937715 0.000000 -0.347406
vn 0.994419 0.000000 -0.105502
vn 0.823587 0.000000 -0.567191
vn -0.994419 0.000000 -0.105502
vn -0.937463 0.000000 -0.348086
vn -0.937674 0.004100 -0.347491
vn -0.994412 0.003900 -0.105501
vn -0.823587 0.000000 -0.567191
vn -0.714098 0.695898 -0.076100
vn -0.703011 0.706911 -0.077801
vn -0.993934 0.004000 -0.109904
vn 0.669609 0.002700 -0.742709
vn 0.669611 0.000000 -0.742712
vn 0.006800 0.000000 -0.999977
vn 0.993954 0.000000 -0.109795
vn -0.669608 0.002900 -0.742709
vn -0.669611 0.000300 -0.742712
vn -0.993931 0.000100 -0.110003
vn -0.007000 0.000000 -0.999976
vn 0.000000 0.999994 -0.003500
vn 0.000000 0.999994 -0.003500
vn 0.002700 0.999996 -0.000300
vn 0.001800 0.999998 -0.001200
vn -0.001800 0.999998 -0.001300
vn -0.001800 0.999998 -0.001300
vn -0.001800 0.999998 -0.001300
vn -0.002800 0.999996 -0.000300
vn -0.346292 0.566087 0.748083
vn 0.000000 1.000000 0.000000
vn 0.355505 0.566007 0.743809
vn 0.428110 0.003100 0.903721
vn -0.767689 0.575392 0.282096
vn -0.939879 0.003400 0.341492
vn 0.771205 0.575503 0.272102
vn 0.941786 0.003400 0.336195
vn -0.577384 0.577284 -0.577384
vn 0.577384 0.577384 -0.577284
vn -0.126696 0.961870 -0.242392
vn -0.306807 0.748718 -0.587614
vn 0.306407 0.750916 -0.585013
vn 0.000000 1.000000 0.000000
vn 0.651983 0.718681 -0.241694
vn 0.324796 0.938089 -0.120399
vn -0.326898 0.937295 -0.120899
vn -0.654893 0.715792 -0.242397
vn 0.537414 0.596416 -0.596216
vn -0.550302 0.569502 -0.610602
vn 0.000000 0.999994 -0.003500
vn 0.000000 1.000000 0.000000
vn 0.000000 0.999994 -0.003500
vn 0.000000 1.000000 0.000000
vn 0.000800 0.999968 0.008000
vn -0.000800 0.999968 0.008000
vn 0.001800 0.999998 -0.001300
vn 0.001800 0.999998 -0.001200
vn 0.000000 1.000000 0.000000
vn -0.006200 0.999978 0.002200
vn -0.001800 0.999998 -0.001300
vn 0.000000 1.000000 0.000000
vn -0.001800 0.999998 -0.001300
vn 0.006300 0.999978 0.002200
vn 0.002700 0.999996 -0.000300
vn 0.004800 0.999976 -0.005100
vn -0.008000 0.999955 -0.005100
vn -0.004800 0.999976 -0.005100
vn 0.008000 0.999955 -0.005100
vn -0.002800 0.999996 -0.000300
s 1
g Desk_v02
f 1/1/1 2/2/2 3/3/3 4/4/4
f 2/5/2 5/6/5 6/7/6 3/3/3
f 5/8/5 9/9/7 10/10/8 11/11/9
f 9/9/7 7/12/10 12/13/11 10/14/8
f 11/15/9 15/16/12 16/17/13 17/18/14
f 15/19/12 13/20/15 18/21/16 16/22/13
f 19/23/17 20/24/18 21/25/19 22/26/20
f 20/27/18 6/28/6 23/29/21 21/25/19
f 17/30/14 27/31/22 28/32/23 29/33/24
f 27/31/22 25/34/25 30/35/26 28/32/23
f 31/36/27 32/37/28 33/38/29 34/39/30
f 32/37/28 23/29/21 35/40/31 33/38/29
f 22/26/20 36/41/32 37/42/33 38/43/34
f 36/41/32 31/36/27 39/44/35 37/42/33
f 29/33/24 40/45/36 41/46/37 42/47/38
f 40/45/36 43/48/39 44/49/40 41/46/37
f 43/48/39 45/50/41 46/51/42 47/52/43
f 45/50/41 30/35/26 48/53/44 46/51/42
f 49/54/45 50/55/46 51/56/47 52/57/48
f 50/55/46 53/58/49 54/59/50 51/60/47
f 52/57/48 55/61/51 56/62/52 57/63/53
f 58/64/54 54/59/50 59/65/55 60/66/56
f 61/67/57 62/68/58 63/69/59 64/70/60
f 62/68/58 65/71/61 66/72/62 67/73/63
f 65/74/61 59/65/55 68/75/64 66/72/62
f 69/76/65 70/77/66 71/78/67 72/79/68
f 70/77/66 73/80/69 74/81/70 75/82/71
f 73/83/69 63/69/59 76/84/72 74/81/70
f 77/85/73 78/86/74 79/87/75 80/88/76
f 78/86/74 81/89/77 57/63/53 79/90/75
f 80/88/76 82/91/78 83/92/79 84/93/80
f 34/39/30 85/94/81 86/95/82 87/96/83
f 85/94/81 71/78/67 88/97/84 86/95/82
f 84/93/80 89/98/85 90/99/86 91/100/87
f 89/98/85 44/49/40 92/101/88 90/99/86
f 68/75/64 59/65/55 54/59/50 53/58/49
f 62/68/58 67/73/63 76/84/72 63/69/59
f 52/57/48 57/63/53 81/89/77 49/54/45
f 70/77/66 75/82/71 88/97/84 71/78/67
f 80/88/76 84/93/80 91/100/87 77/85/73
f 31/36/27 34/39/30 87/96/83 39/44/35
f 43/48/39 47/52/43 92/101/88 44/49/40
f 58/64/54 60/66/56 95/102/89 94/103/90
f 69/76/65 72/79/68 35/40/31 103/104/91
f 61/67/57 64/70/60 98/105/92 97/106/93
f 55/61/51 102/107/94 101/108/95 56/62/52
f 82/91/78 104/109/96 42/47/38 83/92/79
f 9/9/7 5/8/5 2/110/2 105/111/97
f 2/2/2 1/1/1 8/112/98 105/113/97
f 8/114/98 7/12/10 9/9/7 105/111/97
f 15/16/12 11/15/9 10/115/8 106/116/99
f 10/14/8 12/13/11 14/117/100 106/118/99
f 14/119/100 13/20/15 15/19/12 106/116/99
f 3/3/3 6/7/6 20/120/18 107/121/101
f 20/24/18 19/23/17 24/122/102 107/123/101
f 24/124/102 4/4/4 3/3/3 107/121/101
f 27/31/22 17/30/14 16/125/13 108/126/103
f 16/22/13 18/21/16 26/127/104 108/128/103
f 26/129/104 25/34/25 27/31/22 108/126/103
f 21/25/19 23/29/21 32/37/28 109/130/105
f 32/37/28 31/36/27 36/41/32 109/130/105
f 36/41/32 22/26/20 21/25/19 109/130/105
f 45/50/41 43/48/39 40/45/36 110/131/106
f 40/45/36 29/33/24 28/32/23 110/131/106
f 28/32/23 30/35/26 45/50/41 110/131/106
f 93/132/107 102/133/94 55/134/51 111/135/108
f 55/61/51 52/57/48 51/56/47 111/136/108
f 51/60/47 54/59/50 58/64/54 111/135/108
f 58/64/54 94/103/90 93/132/107 111/135/108
f 65/71/61 62/68/58 61/67/57 112/137/109
f 61/67/57 97/106/93 96/138/110 112/137/109
f 96/139/110 95/102/89 60/66/56 112/140/109
f 60/66/56 59/65/55 65/74/61 112/140/109
f 73/80/69 70/77/66 69/76/65 113/141/111
f 69/76/65 103/104/91 99/142/112 113/141/111
f 99/142/112 98/143/92 64/144/60 113/141/111
f 64/70/60 63/69/59 73/83/69 113/145/111
f 100/146/113 104/109/96 82/91/78 114/147/114
f 82/91/78 80/88/76 79/87/75 114/147/114
f 79/90/75 57/63/53 56/62/52 114/148/114
f 56/62/52 101/108/95 100/149/113 114/148/114
f 72/79/68 71/78/67 85/94/81 115/150/115
f 85/94/81 34/39/30 33/38/29 115/150/115
f 33/38/29 35/40/31 72/79/68 115/150/115
f 89/98/85 84/93/80 83/92/79 116/151/116
f 83/92/79 42/47/38 41/46/37 116/151/116
f 41/46/37 44/49/40 89/98/85 116/151/116
f 93/132/107 94/103/90 119/152/117 118/153/118
f 94/103/90 95/102/89 120/154/119 119/152/117
f 95/102/89 96/139/110 121/155/120 120/154/119
f 5/8/5 11/11/9 117/156/121 122/157/122
f 96/158/110 97/106/93 123/159/123 121/160/120
f 97/106/93 98/105/92 124/161/124 123/159/123
f 98/105/92 99/162/112 125/163/125 124/161/124
f 6/7/6 5/6/5 122/164/122 126/165/126
f 100/166/113 101/108/95 129/167/127 128/168/128
f 101/108/95 102/107/94 130/169/129 129/167/127
f 102/107/94 93/170/107 118/171/118 130/169/129
f 11/15/9 17/18/14 127/172/130 117/173/121
f 99/142/112 103/104/91 131/174/131 125/175/125
f 103/104/91 35/40/31 132/176/132 131/174/131
f 35/40/31 23/29/21 133/177/133 132/176/132
f 23/29/21 6/28/6 126/178/126 133/177/133
f 29/33/24 42/47/38 134/179/134 135/180/135
f 42/47/38 104/109/96 136/181/136 134/179/134
f 104/109/96 100/146/113 128/182/128 136/181/136
f 17/30/14 29/33/24 135/180/135 127/183/130
