# This file uses centimeters as units for non-parametric coordinates.

g default
v -0.000005 1627.050903 159.219055
v 797.877930 1032.579590 -1767.028564
v -797.877869 1032.579590 -1767.028564
v 18.399448 1584.325684 20.776978
v 18.399446 1178.618652 -1293.822876
v -18.399448 1584.325684 20.776978
v -18.399448 1178.618652 -1293.822876
v 18.399446 1266.858154 -1321.055054
v -18.399448 1266.858154 -1321.055054
v 18.399448 1672.565186 -6.455200
v -18.399448 1672.565186 -6.455200
v 1926.247559 1032.579590 -638.658813
v 110.903702 1584.325684 74.336105
v 1040.466187 1178.618652 -855.226318
v 84.882950 1584.325684 48.315353
v 1014.445435 1178.618652 -881.247070
v 1059.722168 1266.858154 -874.482422
v 1033.701416 1266.858154 -900.503174
v 130.159760 1672.565186 55.080044
v 104.139008 1672.565186 29.059296
v -797.877930 1032.579590 2085.466797
v 797.877808 1032.579590 2085.466797
v -18.399460 1584.325684 297.661133
v -18.399458 1178.618652 1612.260986
v 18.399437 1584.325684 297.661133
v 18.399437 1178.618652 1612.260986
v -18.399458 1266.858154 1639.493164
v 18.399437 1266.858154 1639.493164
v -18.399460 1672.565186 324.893311
v 18.399437 1672.565186 324.893311
v -1926.247559 1032.579590 -638.658936
v -84.882965 1584.325684 48.315346
v -1014.445435 1178.618652 -881.247131
v -110.903709 1584.325684 74.336090
v -1040.466187 1178.618652 -855.226379
v -1033.701416 1266.858154 -900.503174
v -1059.722168 1266.858154 -874.482422
v -104.139023 1672.565186 29.059288
v -130.159760 1672.565186 55.080036
v -1926.247559 1032.579590 957.096924
v -138.442078 1584.325684 140.819611
v -1453.041992 1178.618652 140.819611
v -138.442078 1584.325684 177.618500
v -1453.041992 1178.618652 177.618500
v -1480.274170 1266.858154 140.819611
v -1480.274170 1266.858154 177.618500
v -165.674255 1672.565186 140.819611
v -165.674255 1672.565186 177.618500
v -110.903717 1584.325684 244.102005
v -1040.466187 1178.618652 1173.664429
v -84.882965 1584.325684 270.122742
v -1014.445435 1178.618652 1199.685181
v -1059.722168 1266.858154 1192.920532
v -1033.701416 1266.858154 1218.941284
v -130.159775 1672.565186 263.358063
v -104.139023 1672.565186 289.378815
v 1926.247559 1032.579590 957.097046
v 84.882950 1584.325684 270.122742
v 1014.445374 1178.618652 1199.685181
v 110.903694 1584.325684 244.102005
v 1040.466187 1178.618652 1173.664429
v 1033.701416 1266.858154 1218.941284
v 1059.722168 1266.858154 1192.920532
v 104.139008 1672.565186 289.378815
v 130.159760 1672.565186 263.358063
v 138.442078 1584.325684 177.618500
v 1453.041992 1178.618652 177.618500
v 138.442078 1584.325684 140.819611
v 1453.041992 1178.618652 140.819611
v 1480.274170 1266.858154 177.618500
v 1480.274170 1266.858154 140.819611
v 165.674255 1672.565186 177.618500
v 165.674255 1672.565186 140.819611
vt 0.157931 0.732829
vt 0.157931 0.559763
vt 0.169548 0.559763
vt 0.169548 0.732829
vt 0.028937 0.729656
vt 0.028937 0.556589
vt 0.040554 0.556589
vt 0.040554 0.729656
vt 0.094397 0.730376
vt 0.094396 0.557308
vt 0.106013 0.557308
vt 0.106013 0.730376
vt 0.179109 0.732340
vt 0.179109 0.559274
vt 0.190726 0.559274
vt 0.190726 0.732340
vt 0.396665 0.031323
vt 0.401398 0.031323
vt 0.401398 0.042673
vt 0.396665 0.042673
vt 0.908794 0.025837
vt 0.913527 0.025837
vt 0.913527 0.037186
vt 0.908794 0.037186
vt 0.396665 0.011096
vt 0.401398 0.011096
vt 0.401398 0.022445
vt 0.396665 0.022445
vt 0.738325 0.036826
vt 0.733591 0.036826
vt 0.733591 0.025476
vt 0.738325 0.025476
vt 0.557479 0.440629
vt 0.562214 0.440629
vt 0.662527 0.501527
vt 0.457166 0.501527
vt 0.559846 0.253634
vt 0.562214 0.271451
vt 0.557479 0.271451
vt 0.570770 0.267907
vt 0.690398 0.387534
vt 0.429295 0.387534
vt 0.548923 0.267907
vt 0.693746 0.384185
vt 0.807739 0.356315
vt 0.574119 0.264558
vt 0.425947 0.384185
vt 0.311953 0.356315
vt 0.545574 0.264558
vt 0.577663 0.256002
vt 0.746841 0.256002
vt 0.372851 0.256002
vt 0.542030 0.256002
vt 0.746841 0.251266
vt 0.807739 0.150954
vt 0.577663 0.251266
vt 0.372851 0.251266
vt 0.311953 0.150954
vt 0.542030 0.251266
vt 0.574119 0.242710
vt 0.693746 0.123083
vt 0.425947 0.123083
vt 0.545574 0.242710
vt 0.690398 0.119734
vt 0.662527 0.005741
vt 0.570770 0.239362
vt 0.429295 0.119734
vt 0.457166 0.005741
vt 0.548923 0.239362
vt 0.562214 0.235818
vt 0.562214 0.066639
vt 0.557479 0.066639
vt 0.557479 0.235818
vt 0.710488 0.007083
vt 0.715221 0.007083
vt 0.715221 0.018432
vt 0.710488 0.018432
vt 0.412068 0.016535
vt 0.416801 0.016535
vt 0.416801 0.027884
vt 0.412068 0.027884
vt 0.715221 0.038880
vt 0.710488 0.038880
vt 0.710488 0.027530
vt 0.715221 0.027530
vt 0.697011 0.014514
vt 0.701744 0.014514
vt 0.701744 0.025863
vt 0.697011 0.025863
vt 0.073218 0.729653
vt 0.073218 0.556586
vt 0.084835 0.556586
vt 0.084835 0.729653
vt 0.136753 0.730707
vt 0.136753 0.557640
vt 0.148370 0.557640
vt 0.148370 0.730707
vt 0.115575 0.729389
vt 0.115575 0.556322
vt 0.127192 0.556322
vt 0.127192 0.729389
vt 0.052040 0.730639
vt 0.052040 0.557572
vt 0.063657 0.557572
vt 0.063657 0.730639
vt 0.817901 0.798945
vt 0.816379 0.795359
vt 0.829663 0.792851
vt 0.831186 0.796436
vt 0.817901 0.643551
vt 0.831186 0.641042
vt 0.839483 0.795977
vt 0.841005 0.792392
vt 0.854289 0.794900
vt 0.852767 0.798485
vt 0.839483 0.640585
vt 0.852767 0.643094
vt 0.885690 0.627205
vt 0.887248 0.623635
vt 0.900507 0.626277
vt 0.898949 0.629846
vt 0.885690 0.779022
vt 0.898949 0.781664
vt 0.710120 0.642838
vt 0.708562 0.639268
vt 0.721821 0.636626
vt 0.723378 0.640196
vt 0.710120 0.794655
vt 0.723378 0.792013
vt 0.908391 0.793987
vt 0.906868 0.790402
vt 0.920153 0.787893
vt 0.921675 0.791478
vt 0.908391 0.638594
vt 0.921675 0.636085
vt 0.793276 0.794921
vt 0.794798 0.791335
vt 0.808082 0.793844
vt 0.806560 0.797429
vt 0.793276 0.639525
vt 0.806560 0.642034
vt 0.770172 0.644425
vt 0.771730 0.640855
vt 0.784988 0.643497
vt 0.783430 0.647067
vt 0.770172 0.796241
vt 0.783430 0.798883
vt 0.748626 0.647281
vt 0.747068 0.643711
vt 0.760327 0.641069
vt 0.761885 0.644639
vt 0.748626 0.799097
vt 0.761885 0.796455
vn 0.000000 -0.955531 0.294892
vn 0.000000 -0.955531 0.294892
vn 0.000000 -0.955531 0.294892
vn 0.000000 -0.955531 0.294892
vn 0.000000 -0.955531 0.294892
vn 0.000000 -0.955531 0.294892
vn 0.000000 -0.955531 0.294892
vn 0.000000 -0.955531 0.294892
vn 0.000000 -0.955531 0.294892
vn 0.000000 -0.955531 0.294892
vn 0.000000 -0.955531 0.294892
vn 0.000000 -0.955531 0.294892
vn 0.000000 -0.955531 0.294892
vn 0.000000 -0.955531 0.294892
vn 0.000000 -0.955531 0.294892
vn 0.000000 0.294892 0.955531
vn 0.000000 0.294892 0.955531
vn 0.000000 0.294892 0.955531
vn 0.000000 0.294892 0.955531
vn 0.000000 -0.294893 -0.955530
vn 0.000000 -0.294893 -0.955530
vn 0.000000 -0.294893 -0.955530
vn 0.000000 -0.294893 -0.955530
vn -1.000000 0.000000 0.000000
vn -1.000000 0.000000 0.000000
vn -1.000000 0.000000 0.000000
vn -1.000000 0.000000 0.000000
vn 1.000000 0.000000 0.000000
vn 1.000000 0.000000 0.000000
vn 1.000000 0.000000 0.000000
vn 1.000000 0.000000 0.000000
vn -0.208521 -0.955531 0.208520
vn -0.208520 -0.955531 0.208521
vn -0.208520 -0.955530 0.208521
vn -0.208521 -0.955531 0.208520
vn -0.208520 -0.955531 0.208520
vn -0.208520 -0.955531 0.208521
vn -0.208521 -0.955531 0.208519
vn -0.208521 -0.955531 0.208519
vn -0.208521 -0.955531 0.208520
vn -0.208521 -0.955531 0.208520
vn -0.208520 -0.955531 0.208520
vn -0.208520 -0.955531 0.208520
vn -0.208520 -0.955530 0.208521
vn -0.208520 -0.955531 0.208521
vn -0.208520 -0.955531 0.208521
vn -0.675661 0.294893 0.675663
vn -0.675661 0.294893 0.675663
vn -0.675661 0.294893 0.675663
vn -0.675661 0.294893 0.675663
vn 0.675662 -0.294892 -0.675662
vn 0.675662 -0.294892 -0.675662
vn 0.675662 -0.294892 -0.675662
vn 0.675662 -0.294892 -0.675662
vn -0.707107 0.000000 -0.707106
vn -0.707107 0.000000 -0.707106
vn -0.707107 0.000000 -0.707106
vn -0.707107 0.000000 -0.707106
vn 0.707107 0.000000 0.707106
vn 0.707107 0.000000 0.707106
vn 0.707107 0.000000 0.707106
vn 0.707107 0.000000 0.707106
vn 0.000000 -0.955531 -0.294892
vn 0.000000 -0.955531 -0.294892
vn 0.000000 -0.955531 -0.294892
vn 0.000000 -0.955531 -0.294892
vn 0.000000 -0.955531 -0.294892
vn 0.000000 -0.955531 -0.294892
vn 0.000000 -0.955531 -0.294892
vn 0.000000 -0.955531 -0.294892
vn 0.000000 -0.955531 -0.294892
vn 0.000000 -0.955531 -0.294892
vn 0.000000 -0.955531 -0.294892
vn 0.000000 -0.955531 -0.294892
vn 0.000000 -0.955531 -0.294892
vn 0.000000 -0.955531 -0.294892
vn 0.000000 -0.955531 -0.294892
vn 0.000000 0.294892 -0.955531
vn 0.000000 0.294892 -0.955531
vn 0.000000 0.294892 -0.955531
vn 0.000000 0.294892 -0.955531
vn 0.000000 -0.294893 0.955530
vn 0.000000 -0.294893 0.955530
vn 0.000000 -0.294893 0.955530
vn 0.000000 -0.294893 0.955530
vn 1.000000 0.000000 0.000000
vn 1.000000 0.000000 0.000000
vn 1.000000 0.000000 0.000000
vn 1.000000 0.000000 0.000000
vn -1.000000 0.000000 0.000000
vn -1.000000 0.000000 0.000000
vn -1.000000 0.000000 0.000000
vn -1.000000 0.000000 0.000000
vn 0.208520 -0.955530 0.208521
vn 0.208521 -0.955531 0.208520
vn 0.208521 -0.955531 0.208520
vn 0.208520 -0.955530 0.208521
vn 0.208520 -0.955531 0.208520
vn 0.208521 -0.955531 0.208520
vn 0.208520 -0.955531 0.208521
vn 0.208520 -0.955531 0.208521
vn 0.208520 -0.955530 0.208521
vn 0.208520 -0.955530 0.208521
vn 0.208520 -0.955531 0.208520
vn 0.208520 -0.955531 0.208520
vn 0.208521 -0.955531 0.208520
vn 0.208521 -0.955531 0.208520
vn 0.208521 -0.955531 0.208520
vn 0.675661 0.294893 0.675663
vn 0.675661 0.294893 0.675663
vn 0.675661 0.294893 0.675663
vn 0.675661 0.294893 0.675663
vn -0.675662 -0.294892 -0.675663
vn -0.675662 -0.294892 -0.675663
vn -0.675662 -0.294892 -0.675663
vn -0.675662 -0.294892 -0.675663
vn -0.707107 0.000000 0.707106
vn -0.707107 0.000000 0.707106
vn -0.707107 0.000000 0.707106
vn -0.707107 0.000000 0.707106
vn 0.707107 0.000000 -0.707106
vn 0.707107 0.000000 -0.707106
vn 0.707107 0.000000 -0.707106
vn 0.707107 0.000000 -0.707106
vn 0.294892 -0.955531 0.000000
vn 0.294892 -0.955531 0.000000
vn 0.294892 -0.955531 0.000000
vn 0.294892 -0.955531 0.000000
vn 0.294892 -0.955531 0.000000
vn 0.294892 -0.955531 -0.000001
vn 0.294892 -0.955531 0.000001
vn 0.294892 -0.955531 0.000001
vn 0.294892 -0.955531 0.000000
vn 0.294892 -0.955531 0.000000
vn 0.294892 -0.955531 0.000000
vn 0.294892 -0.955531 0.000000
vn 0.294892 -0.955531 0.000000
vn 0.294892 -0.955531 0.000000
vn 0.294892 -0.955531 -0.000001
vn 0.955531 0.294892 0.000000
vn 0.955531 0.294892 0.000000
vn 0.955531 0.294892 0.000000
vn 0.955531 0.294892 0.000000
vn -0.955530 -0.294893 0.000000
vn -0.955530 -0.294893 0.000000
vn -0.955530 -0.294893 0.000000
vn -0.955530 -0.294893 0.000000
vn 0.000000 0.000000 1.000000
vn 0.000000 0.000000 1.000000
vn 0.000000 0.000000 1.000000
vn 0.000000 0.000000 1.000000
vn -0.000000 0.000000 -1.000000
vn -0.000000 0.000000 -1.000000
vn -0.000000 0.000000 -1.000000
vn -0.000000 0.000000 -1.000000
vn 0.208521 -0.955531 -0.208520
vn 0.208520 -0.955531 -0.208521
vn 0.208520 -0.955531 -0.208521
vn 0.208521 -0.955531 -0.208520
vn 0.208520 -0.955531 -0.208520
vn 0.208520 -0.955531 -0.208521
vn 0.208521 -0.955531 -0.208519
vn 0.208521 -0.955531 -0.208519
vn 0.208521 -0.955531 -0.208520
vn 0.208521 -0.955531 -0.208520
vn 0.208520 -0.955531 -0.208520
vn 0.208520 -0.955531 -0.208520
vn 0.208520 -0.955531 -0.208521
vn 0.208520 -0.955531 -0.208521
vn 0.208520 -0.955531 -0.208521
vn 0.675661 0.294893 -0.675663
vn 0.675661 0.294893 -0.675663
vn 0.675661 0.294893 -0.675663
vn 0.675661 0.294893 -0.675663
vn -0.675662 -0.294892 0.675662
vn -0.675662 -0.294892 0.675662
vn -0.675662 -0.294892 0.675662
vn -0.675662 -0.294892 0.675662
vn 0.707107 -0.000000 0.707106
vn 0.707107 -0.000000 0.707106
vn 0.707107 -0.000000 0.707106
vn 0.707107 -0.000000 0.707106
vn -0.707107 0.000000 -0.707106
vn -0.707107 0.000000 -0.707106
vn -0.707107 0.000000 -0.707106
vn -0.707107 0.000000 -0.707106
vn -0.208520 -0.955531 -0.208521
vn -0.208521 -0.955531 -0.208520
vn -0.208521 -0.955531 -0.208520
vn -0.208520 -0.955530 -0.208521
vn -0.208520 -0.955531 -0.208520
vn -0.208521 -0.955531 -0.208520
vn -0.208520 -0.955531 -0.208521
vn -0.208520 -0.955531 -0.208521
vn -0.208520 -0.955531 -0.208521
vn -0.208520 -0.955530 -0.208521
vn -0.208520 -0.955531 -0.208520
vn -0.208520 -0.955531 -0.208520
vn -0.208521 -0.955531 -0.208520
vn -0.208521 -0.955531 -0.208520
vn -0.208521 -0.955531 -0.208520
vn -0.675661 0.294893 -0.675663
vn -0.675661 0.294893 -0.675663
vn -0.675661 0.294893 -0.675663
vn -0.675661 0.294893 -0.675663
vn 0.675662 -0.294892 0.675662
vn 0.675662 -0.294892 0.675662
vn 0.675662 -0.294892 0.675662
vn 0.675662 -0.294892 0.675662
vn 0.707107 0.000000 -0.707106
vn 0.707107 0.000000 -0.707106
vn 0.707107 0.000000 -0.707106
vn 0.707107 0.000000 -0.707106
vn -0.707107 0.000000 0.707106
vn -0.707107 0.000000 0.707106
vn -0.707107 0.000000 0.707106
vn -0.707107 0.000000 0.707106
vn -0.294892 -0.955531 0.000000
vn -0.294892 -0.955531 0.000000
vn -0.294892 -0.955531 0.000000
vn -0.294892 -0.955531 0.000000
vn -0.294892 -0.955531 0.000000
vn -0.294892 -0.955531 0.000001
vn -0.294892 -0.955531 -0.000001
vn -0.294892 -0.955531 -0.000001
vn -0.294892 -0.955531 0.000000
vn -0.294892 -0.955531 0.000000
vn -0.294892 -0.955531 0.000000
vn -0.294892 -0.955531 0.000000
vn -0.294892 -0.955531 0.000000
vn -0.294892 -0.955531 0.000000
vn -0.294892 -0.955531 0.000001
vn -0.955531 0.294892 0.000000
vn -0.955531 0.294892 0.000000
vn -0.955531 0.294892 0.000000
vn -0.955531 0.294892 0.000000
vn 0.955530 -0.294893 0.000000
vn 0.955530 -0.294893 0.000000
vn 0.955530 -0.294893 0.000000
vn 0.955530 -0.294893 0.000000
vn -0.000000 0.000000 -1.000000
vn -0.000000 0.000000 -1.000000
vn -0.000000 0.000000 -1.000000
vn -0.000000 0.000000 -1.000000
vn 0.000000 0.000000 1.000000
vn 0.000000 0.000000 1.000000
vn 0.000000 0.000000 1.000000
vn 0.000000 0.000000 1.000000
s off
g Ceiling_Rectangle Geo
f 5/33/1 7/34/2 3/35/3 2/36/4
f 1/37/5 6/38/6 4/39/7
f 4/39/8 5/33/9 2/36/10 1/37/11
f 1/37/12 3/35/13 7/34/14 6/38/15
f 7/74/16 5/75/17 8/76/18 9/77/19
f 4/78/20 6/79/21 11/80/22 10/81/23
f 5/1/24 4/2/25 10/3/26 8/4/27
f 6/5/28 7/6/29 9/7/30 11/8/31
f 14/47/32 16/42/33 2/36/34 12/48/35
f 1/37/36 15/43/37 13/49/38
f 13/49/39 14/47/40 12/48/41 1/37/42
f 1/37/43 2/36/44 16/42/45 15/43/46
f 16/106/47 14/107/48 17/108/49 18/109/50
f 13/112/51 15/113/52 20/114/53 19/115/54
f 14/107/55 13/110/56 19/111/57 17/108/58
f 15/113/59 16/116/60 18/117/61 20/114/62
f 24/71/63 26/72/64 22/68/65 21/65/66
f 1/37/67 25/73/68 23/70/69
f 23/70/70 24/71/71 21/65/72 1/37/73
f 1/37/74 22/68/75 26/72/76 25/73/77
f 26/82/78 24/83/79 27/84/80 28/85/81
f 23/86/82 25/87/83 30/88/84 29/89/85
f 24/9/86 23/10/87 29/11/88 27/12/89
f 25/13/90 26/14/91 28/15/92 30/16/93
f 33/41/94 35/44/95 31/45/96 3/35/97
f 1/37/98 34/46/99 32/40/100
f 32/40/101 33/41/102 3/35/103 1/37/104
f 1/37/105 31/45/106 35/44/107 34/46/108
f 35/118/109 33/119/110 36/120/111 37/121/112
f 32/124/113 34/125/114 39/126/115 38/127/116
f 33/128/117 32/124/118 38/127/119 36/129/120
f 34/122/121 35/118/122 37/121/123 39/123/124
f 42/51/125 44/54/126 40/55/127 31/45/128
f 1/37/129 43/56/130 41/50/131
f 41/50/132 42/51/133 31/45/134 1/37/135
f 1/37/136 40/55/137 44/54/138 43/56/139
f 44/17/140 42/18/141 45/19/142 46/20/143
f 41/21/144 43/22/145 48/23/146 47/24/147
f 42/90/148 41/91/149 47/92/150 45/93/151
f 43/94/152 44/95/153 46/96/154 48/97/155
f 50/61/156 52/64/157 21/65/158 40/55/159
f 1/37/160 51/66/161 49/60/162
f 49/60/163 50/61/164 40/55/165 1/37/166
f 1/37/167 21/65/168 52/64/169 51/66/170
f 52/130/171 50/131/172 53/132/173 54/133/174
f 49/136/175 51/137/176 56/138/177 55/139/178
f 50/131/179 49/134/180 55/135/181 53/132/182
f 51/137/183 52/140/184 54/141/185 56/138/186
f 59/67/187 61/62/188 57/58/189 22/68/190
f 1/37/191 60/63/192 58/69/193
f 58/69/194 59/67/195 22/68/196 1/37/197
f 1/37/198 57/58/199 61/62/200 60/63/201
f 61/142/202 59/143/203 62/144/204 63/145/205
f 58/148/206 60/149/207 65/150/208 64/151/209
f 59/152/210 58/148/211 64/151/212 62/153/213
f 60/146/214 61/142/215 63/145/216 65/147/217
f 67/57/218 69/52/219 12/48/220 57/58/221
f 1/37/222 68/53/223 66/59/224
f 66/59/225 67/57/226 57/58/227 1/37/228
f 1/37/229 12/48/230 69/52/231 68/53/232
f 69/25/233 67/26/234 70/27/235 71/28/236
f 66/29/237 68/30/238 73/31/239 72/32/240
f 67/98/241 66/99/242 72/100/243 70/101/244
f 68/102/245 69/103/246 71/104/247 73/105/248
