# This file uses centimeters as units for non-parametric coordinates.

g default
v 1926.314331 0.000000 -638.686695
v 797.905518 0.000000 -1767.095692
v -797.905701 0.000000 -1767.095692
v -1926.314697 0.000000 -638.686695
v -1926.314697 0.000000 957.124523
v -797.905762 0.000000 2085.533581
v 797.905640 0.000000 2085.533703
v 1926.314697 0.000000 957.124645
vt 0.357641 0.996031
vt 0.357641 0.511378
vt 0.558392 0.511378
vt 0.558391 0.996032
vt 0.215690 0.653329
vt 0.215690 0.854080
vt 0.700343 0.653330
vt 0.700343 0.854080
vn 0.000000 1.000000 0.000000
vn 0.000000 1.000000 0.000000
vn 0.000000 1.000000 0.000000
vn 0.000000 1.000000 0.000000
vn 0.000000 1.000000 0.000000
vn 0.000000 1.000000 0.000000
vn 0.000000 1.000000 0.000000
vn 0.000000 1.000000 0.000000
s 1
g Floor Geo
f 3/1/1 6/2/2 7/3/3 2/4/4
f 5/5/5 6/2/2 3/1/1 4/6/6
f 2/4/4 7/3/3 8/7/7 1/8/8
