# This file uses centimeters as units for non-parametric coordinates.

mtllib BackScreen.mtl
g default
v 914.078735 -0.000003 -146.266174
v 874.289368 -0.000003 -216.265579
v 819.540649 -0.000003 -282.564636
v 750.769348 -0.000003 -344.028900
v 669.152161 -0.000003 -399.606720
v 576.085571 -0.000003 -448.347229
v 473.162048 -0.000003 -489.416351
v 362.142578 -0.000003 -522.111450
v 244.926743 -0.000003 -545.873047
v 123.520164 -0.000003 -560.294556
v 0.000127 -0.000003 -565.129333
v -123.519905 -0.000003 -560.294556
v -244.926483 -0.000003 -545.873047
v -362.142303 -0.000003 -522.111450
v -473.161774 -0.000003 -489.416382
v -576.085266 -0.000003 -448.347290
v -669.151794 -0.000003 -399.606812
v -750.768982 -0.000003 -344.028961
v -819.540283 -0.000003 -282.564697
v -874.289063 -0.000003 -216.265686
v -914.078430 -0.000003 -146.266296
v 914.078735 354.747101 -146.266174
v 874.289368 354.747101 -216.265579
v 819.540649 354.747101 -282.564636
v 750.769348 354.747101 -344.028900
v 669.152161 354.747101 -399.606720
v 576.085571 354.747101 -448.347229
v 473.162048 354.747101 -489.416351
v 362.142578 354.747101 -522.111450
v 244.926743 354.747101 -545.873047
v 123.520164 354.747101 -560.294556
v 0.000127 354.747101 -565.129333
v -123.519905 354.747101 -560.294556
v -244.926483 354.747101 -545.873047
v -362.142303 354.747101 -522.111450
v -473.161774 354.747101 -489.416382
v -576.085266 354.747101 -448.347290
v -669.151794 354.747101 -399.606812
v -750.768982 354.747101 -344.028961
v -819.540283 354.747101 -282.564697
v -874.289063 354.747101 -216.265686
v -914.078430 354.747101 -146.266296
vt 0.166692 0.000000
vt -0.000155 0.000000
vt 0.166538 0.000000
vt 0.333230 0.000000
vt 0.499923 0.000000
vt 0.666615 0.000000
vt 0.833308 0.000000
vt 1.000077 0.000000
vt 0.833385 0.000000
vt 0.666692 0.000000
vt 0.500000 0.000000
vt 0.333308 0.000000
vt 0.166615 0.000000
vt 0.000000 0.000000
vt 0.166692 0.000000
vt 0.333385 0.000000
vt 0.500077 0.000000
vt 0.666770 0.000000
vt 0.833462 0.000000
vt 1.000000 0.000000
vt 0.833308 0.000000
vt 0.166692 1.000000
vt 0.000000 1.000000
vt 0.166538 1.000000
vt 0.333230 1.000000
vt 0.499923 1.000000
vt 0.666615 1.000000
vt 0.833308 1.000000
vt 1.000000 1.000000
vt 0.833385 1.000000
vt 0.666692 1.000000
vt 0.500000 1.000000
vt 0.333308 1.000000
vt 0.166615 1.000000
vt -0.000077 1.000000
vt 0.166692 1.000000
vt 0.333385 1.000000
vt 0.500077 1.000000
vt 0.666770 1.000000
vt 0.833462 1.000000
vt 1.000155 1.000000
vt 0.833308 1.000000
vt -0.000077 0.000000
vt 0.000000 1.000000
vt 1.000000 0.000000
vt 1.000077 1.000000
vt 1.000155 0.000000
vt 1.000000 1.000000
vt 0.000000 0.000000
vt -0.000155 1.000000
vn -0.869366 0.000000 0.494169
vn -0.869366 0.000000 0.494169
vn -0.821691 0.000000 0.569934
vn -0.821691 0.000000 0.569934
vn -0.718945 0.000000 0.695067
vn -0.718945 0.000000 0.695067
vn -0.614180 0.000000 0.789166
vn -0.614180 0.000000 0.789166
vn -0.512717 0.000000 0.858558
vn -0.512717 0.000000 0.858558
vn -0.416581 0.000000 0.909099
vn -0.416581 0.000000 0.909099
vn -0.325954 0.000000 0.945386
vn -0.325954 0.000000 0.945386
vn -0.240124 0.000000 0.970742
vn -0.240124 0.000000 0.970742
vn -0.158005 0.000000 0.987438
vn -0.158005 0.000000 0.987438
vn -0.078379 0.000000 0.996924
vn -0.078379 0.000000 0.996924
vn 0.000000 0.000000 1.000000
vn 0.000000 0.000000 1.000000
vn 0.078379 0.000000 0.996924
vn 0.078379 0.000000 0.996924
vn 0.158005 0.000000 0.987438
vn 0.158005 0.000000 0.987438
vn 0.240124 0.000000 0.970742
vn 0.240124 0.000000 0.970742
vn 0.325954 0.000000 0.945386
vn 0.325954 0.000000 0.945386
vn 0.416581 0.000000 0.909099
vn 0.416581 0.000000 0.909099
vn 0.512717 0.000000 0.858558
vn 0.512717 0.000000 0.858558
vn 0.614180 0.000000 0.789166
vn 0.614180 0.000000 0.789166
vn 0.718945 0.000000 0.695067
vn 0.718945 0.000000 0.695067
vn 0.821690 0.000000 0.569934
vn 0.821690 0.000000 0.569934
vn 0.869366 0.000000 0.494169
vn 0.869366 0.000000 0.494169
s 1
g BackScreen Emissives
usemtl lambert3SG
f 1/1/1 22/22/2 23/23/3 2/49/4
f 2/2/4 23/50/3 24/24/5 3/3/6
f 3/3/6 24/24/5 25/25/7 4/4/8
f 4/4/8 25/25/7 26/26/9 5/5/10
f 5/5/10 26/26/9 27/27/11 6/6/12
f 6/6/12 27/27/11 28/28/13 7/7/14
f 7/7/14 28/28/13 29/29/15 8/45/16
f 8/8/16 29/46/15 30/30/17 9/9/18
f 9/9/18 30/30/17 31/31/19 10/10/20
f 10/10/20 31/31/19 32/32/21 11/11/22
f 11/11/22 32/32/21 33/33/23 12/12/24
f 12/12/24 33/33/23 34/34/25 13/13/26
f 13/13/26 34/34/25 35/35/27 14/43/28
f 14/14/28 35/44/27 36/36/29 15/15/30
f 15/15/30 36/36/29 37/37/31 16/16/32
f 16/16/32 37/37/31 38/38/33 17/17/34
f 17/17/34 38/38/33 39/39/35 18/18/36
f 18/18/36 39/39/35 40/40/37 19/19/38
f 19/19/38 40/40/37 41/41/39 20/47/40
f 20/20/40 41/48/39 42/42/41 21/21/42
