# This file uses centimeters as units for non-parametric coordinates.

mtllib CenterStageFloor.mtl
g default
v 129.804489 19.590004 -17.089014
v 126.463402 19.590004 -33.885731
v 120.958473 19.590004 -50.102600
v 113.383980 19.590004 -65.462212
v 103.869415 19.590004 -79.701782
v 92.577637 19.590004 -92.577560
v 79.701843 19.590004 -103.869331
v 65.462288 19.590004 -113.383919
v 50.102699 19.590004 -120.958412
v 33.885799 19.590004 -126.463318
v 17.089117 19.590004 -129.804413
v 0.000041 19.590004 -130.924469
v -17.089029 19.590004 -129.804413
v -33.885719 19.590004 -126.463318
v -50.102585 19.590004 -120.958412
v -65.462204 19.590004 -113.383942
v -79.701767 19.590004 -103.869392
v -92.577545 19.590004 -92.577591
v -103.869331 19.590004 -79.701790
v -113.383896 19.590004 -65.462219
v -120.958405 19.590004 -50.102638
v -126.463303 19.590004 -33.885754
v -129.804398 19.590004 -17.089071
v -130.924408 19.590004 0.000002
v -129.804398 19.590004 17.089073
v -126.463303 19.590004 33.885761
v -120.958374 19.590004 50.102634
v -113.383881 19.590004 65.462212
v -103.869324 19.590004 79.701775
v -92.577538 19.590004 92.577545
v -79.701759 19.590004 103.869354
v -65.462204 19.590004 113.383911
v -50.102585 19.590004 120.958382
v -33.885719 19.590004 126.463280
v -17.089041 19.590004 129.804382
v 0.000016 19.590004 130.924408
v 17.089079 19.590004 129.804367
v 33.885757 19.590004 126.463257
v 50.102615 19.590004 120.958359
v 65.462204 19.590004 113.383881
v 79.701752 19.590004 103.869354
v 92.577530 19.590004 92.577530
v 103.869293 19.590004 79.701759
v 113.383881 19.590004 65.462204
v 120.958328 19.590004 50.102615
v 126.463242 19.590004 33.885750
v 129.804337 19.590004 17.089081
v 130.924362 19.590004 0.000037
v 220.098694 19.590000 -28.976500
v 214.433472 19.590000 -57.457195
v 205.099197 19.590000 -84.954826
v 192.255737 19.590000 -110.998863
v 176.122757 19.590000 -135.143661
v 156.976212 19.590000 -156.976028
v 135.143661 19.590000 -176.122620
v 110.998871 19.590000 -192.255600
v 84.954910 19.590000 -205.099136
v 57.457298 19.590000 -214.433350
v 28.976578 19.590000 -220.098572
v 0.000047 19.590000 -221.997650
v -28.976469 19.590000 -220.098572
v -57.457191 19.590000 -214.433350
v -84.954826 19.590000 -205.099121
v -110.998840 19.590000 -192.255630
v -135.143646 19.590000 -176.122635
v -156.975998 19.590000 -156.976059
v -176.122559 19.590000 -135.143661
v -192.255600 19.590000 -110.998863
v -205.099091 19.590000 -84.954880
v -214.433350 19.590000 -57.457253
v -220.098480 19.590000 -28.976540
v -221.997650 19.590000 -0.000012
v -220.098480 19.590000 28.976501
v -214.433319 19.590000 57.457211
v -205.099060 19.590000 84.954849
v -192.255554 19.590000 110.998764
v -176.122513 19.590000 135.143524
v -156.975983 19.590000 156.975983
v -135.143616 19.590000 176.122513
v -110.998825 19.590000 192.255554
v -84.954819 19.590000 205.099030
v -57.457195 19.590000 214.433258
v -28.976500 19.590000 220.098450
v 0.000008 19.590000 221.997559
v 28.976505 19.590000 220.098450
v 57.457203 19.590000 214.433228
v 84.954826 19.590000 205.098999
v 110.998741 19.590000 192.255524
v 135.143494 19.590000 176.122498
v 156.975937 19.590000 156.975967
v 176.122467 19.590000 135.143524
v 192.255493 19.590000 110.998764
v 205.098984 19.590000 84.954826
v 214.433212 19.590000 57.457214
v 220.098358 19.590000 28.976511
v 221.997528 19.590000 -0.000001
vt 0.787275 0.537820
vt 0.974571 0.627161
vt 0.779881 0.574994
vt 0.953913 0.688017
vt 0.767698 0.610884
vt 0.925488 0.745656
vt 0.750934 0.644877
vt 0.889784 0.799091
vt 0.729877 0.676391
vt 0.847410 0.847409
vt 0.704887 0.704887
vt 0.799092 0.889783
vt 0.676391 0.729877
vt 0.745656 0.925488
vt 0.644877 0.750934
vt 0.688017 0.953912
vt 0.610884 0.767697
vt 0.627161 0.974570
vt 0.574994 0.779881
vt 0.564129 0.987108
vt 0.537821 0.787275
vt 0.500000 0.991311
vt 0.500000 0.789754
vt 0.435871 0.987108
vt 0.462180 0.787275
vt 0.372839 0.974570
vt 0.425006 0.779881
vt 0.311983 0.953912
vt 0.389116 0.767697
vt 0.254344 0.925488
vt 0.355123 0.750934
vt 0.200909 0.889783
vt 0.323609 0.729877
vt 0.152591 0.847409
vt 0.295113 0.704887
vt 0.110217 0.799091
vt 0.270123 0.676391
vt 0.074512 0.745656
vt 0.249066 0.644877
vt 0.046088 0.688017
vt 0.232303 0.610884
vt 0.025430 0.627161
vt 0.220119 0.574994
vt 0.012892 0.564129
vt 0.212725 0.537820
vt 0.008689 0.500000
vt 0.210246 0.500000
vt 0.012892 0.435871
vt 0.212725 0.462179
vt 0.025430 0.372839
vt 0.220119 0.425006
vt 0.046088 0.311983
vt 0.232303 0.389116
vt 0.074512 0.254344
vt 0.249066 0.355123
vt 0.110217 0.200909
vt 0.270123 0.323609
vt 0.152591 0.152590
vt 0.295113 0.295113
vt 0.200909 0.110217
vt 0.323609 0.270123
vt 0.254345 0.074512
vt 0.355123 0.249066
vt 0.311984 0.046088
vt 0.389116 0.232302
vt 0.372840 0.025430
vt 0.425006 0.220119
vt 0.435871 0.012892
vt 0.462180 0.212725
vt 0.500000 0.008689
vt 0.500000 0.210246
vt 0.564129 0.012892
vt 0.537821 0.212725
vt 0.627161 0.025430
vt 0.574994 0.220119
vt 0.688017 0.046088
vt 0.610884 0.232302
vt 0.745656 0.074512
vt 0.644877 0.249066
vt 0.799091 0.110217
vt 0.676391 0.270123
vt 0.847409 0.152591
vt 0.704887 0.295113
vt 0.889783 0.200909
vt 0.729877 0.323609
vt 0.925488 0.254344
vt 0.750934 0.355123
vt 0.953912 0.311983
vt 0.767698 0.389116
vt 0.974570 0.372839
vt 0.779881 0.425006
vt 0.987108 0.435871
vt 0.787275 0.462179
vt 0.991311 0.500000
vt 0.789754 0.500000
vt 0.987109 0.564129
vn 0.000000 1.000000 0.000000
vn 0.000000 1.000000 -0.000000
vn 0.000000 1.000000 -0.000000
vn 0.000000 1.000000 0.000000
vn 0.000000 1.000000 -0.000000
vn 0.000000 1.000000 -0.000000
vn 0.000000 1.000000 -0.000000
vn 0.000000 1.000000 -0.000000
vn 0.000000 1.000000 -0.000000
vn 0.000000 1.000000 -0.000000
vn 0.000000 1.000000 -0.000000
vn 0.000000 1.000000 -0.000000
vn 0.000000 1.000000 -0.000000
vn 0.000000 1.000000 -0.000000
vn 0.000000 1.000000 -0.000000
vn 0.000000 1.000000 -0.000000
vn 0.000000 1.000000 -0.000000
vn 0.000000 1.000000 -0.000000
vn 0.000000 1.000000 -0.000000
vn 0.000000 1.000000 -0.000000
vn 0.000000 1.000000 -0.000000
vn 0.000000 1.000000 -0.000000
vn -0.000000 1.000000 -0.000000
vn 0.000000 1.000000 -0.000000
vn -0.000000 1.000000 -0.000000
vn -0.000000 1.000000 -0.000000
vn -0.000000 1.000000 -0.000000
vn -0.000000 1.000000 -0.000000
vn -0.000000 1.000000 -0.000000
vn -0.000000 1.000000 -0.000000
vn -0.000000 1.000000 -0.000000
vn -0.000000 1.000000 -0.000000
vn -0.000000 1.000000 -0.000000
vn -0.000000 1.000000 -0.000000
vn -0.000000 1.000000 -0.000000
vn -0.000000 1.000000 -0.000000
vn -0.000000 1.000000 -0.000000
vn -0.000000 1.000000 -0.000000
vn -0.000000 1.000000 0.000000
vn -0.000000 1.000000 0.000000
vn -0.000000 1.000000 0.000000
vn -0.000000 1.000000 0.000000
vn -0.000000 1.000000 0.000000
vn -0.000000 1.000000 0.000000
vn -0.000000 1.000000 -0.000000
vn -0.000000 1.000000 -0.000000
vn -0.000000 1.000000 0.000000
vn -0.000000 1.000000 -0.000000
vn -0.000000 1.000000 0.000000
vn -0.000000 1.000000 0.000000
vn -0.000000 1.000000 0.000000
vn -0.000000 1.000000 0.000000
vn -0.000000 1.000000 0.000000
vn -0.000000 1.000000 0.000000
vn -0.000000 1.000000 0.000000
vn -0.000000 1.000000 0.000000
vn -0.000000 1.000000 0.000000
vn -0.000000 1.000000 0.000000
vn -0.000000 1.000000 0.000000
vn -0.000000 1.000000 0.000000
vn -0.000000 1.000000 0.000000
vn -0.000000 1.000000 0.000000
vn -0.000000 1.000000 0.000000
vn -0.000000 1.000000 0.000000
vn -0.000000 1.000000 0.000000
vn -0.000000 1.000000 0.000000
vn -0.000000 1.000000 0.000000
vn -0.000000 1.000000 0.000000
vn -0.000000 1.000000 0.000000
vn -0.000000 1.000000 0.000000
vn 0.000000 1.000000 0.000000
vn 0.000000 1.000000 0.000000
vn 0.000000 1.000000 0.000000
vn 0.000000 1.000000 0.000000
vn 0.000000 1.000000 0.000000
vn 0.000000 1.000000 0.000000
vn 0.000000 1.000000 0.000000
vn 0.000000 1.000000 0.000000
vn 0.000000 1.000000 0.000000
vn 0.000000 1.000000 0.000000
vn 0.000000 1.000000 0.000000
vn 0.000000 1.000000 0.000000
vn 0.000000 1.000000 0.000000
vn 0.000000 1.000000 0.000000
vn 0.000000 1.000000 0.000000
vn 0.000000 1.000000 0.000000
vn 0.000000 1.000000 0.000000
vn 0.000000 1.000000 0.000000
vn 0.000000 1.000000 0.000000
vn 0.000000 1.000000 0.000000
vn 0.000000 1.000000 0.000000
vn 0.000000 1.000000 0.000000
vn 0.000000 1.000000 0.000000
vn 0.000000 1.000000 0.000000
vn 0.000000 1.000000 -0.000000
vn 0.000000 1.000000 -0.000000
s 1
g CenterStageIlluminated Emissives
usemtl blinn5SG
f 2/3/1 1/1/2 49/96/3 50/2/4
f 3/5/5 2/3/1 50/2/4 51/4/6
f 4/7/7 3/5/5 51/4/6 52/6/8
f 5/9/9 4/7/7 52/6/8 53/8/10
f 6/11/11 5/9/9 53/8/10 54/10/12
f 7/13/13 6/11/11 54/10/12 55/12/14
f 8/15/15 7/13/13 55/12/14 56/14/16
f 9/17/17 8/15/15 56/14/16 57/16/18
f 10/19/19 9/17/17 57/16/18 58/18/20
f 11/21/21 10/19/19 58/18/20 59/20/22
f 12/23/23 11/21/21 59/20/22 60/22/24
f 13/25/25 12/23/23 60/22/24 61/24/26
f 14/27/27 13/25/25 61/24/26 62/26/28
f 15/29/29 14/27/27 62/26/28 63/28/30
f 16/31/31 15/29/29 63/28/30 64/30/32
f 17/33/33 16/31/31 64/30/32 65/32/34
f 18/35/35 17/33/33 65/32/34 66/34/36
f 19/37/37 18/35/35 66/34/36 67/36/38
f 20/39/39 19/37/37 67/36/38 68/38/40
f 21/41/41 20/39/39 68/38/40 69/40/42
f 22/43/43 21/41/41 69/40/42 70/42/44
f 23/45/45 22/43/43 70/42/44 71/44/46
f 24/47/47 23/45/45 71/44/46 72/46/48
f 25/49/49 24/47/47 72/46/48 73/48/50
f 26/51/51 25/49/49 73/48/50 74/50/52
f 27/53/53 26/51/51 74/50/52 75/52/54
f 28/55/55 27/53/53 75/52/54 76/54/56
f 29/57/57 28/55/55 76/54/56 77/56/58
f 30/59/59 29/57/57 77/56/58 78/58/60
f 31/61/61 30/59/59 78/58/60 79/60/62
f 32/63/63 31/61/61 79/60/62 80/62/64
f 33/65/65 32/63/63 80/62/64 81/64/66
f 34/67/67 33/65/65 81/64/66 82/66/68
f 35/69/69 34/67/67 82/66/68 83/68/70
f 36/71/71 35/69/69 83/68/70 84/70/72
f 37/73/73 36/71/71 84/70/72 85/72/74
f 38/75/75 37/73/73 85/72/74 86/74/76
f 39/77/77 38/75/75 86/74/76 87/76/78
f 40/79/79 39/77/77 87/76/78 88/78/80
f 41/81/81 40/79/79 88/78/80 89/80/82
f 42/83/83 41/81/81 89/80/82 90/82/84
f 43/85/85 42/83/83 90/82/84 91/84/86
f 44/87/87 43/85/85 91/84/86 92/86/88
f 45/89/89 44/87/87 92/86/88 93/88/90
f 46/91/91 45/89/89 93/88/90 94/90/92
f 47/93/93 46/91/91 94/90/92 95/92/94
f 48/95/95 47/93/93 95/92/94 96/94/96
f 1/1/2 48/95/95 96/94/96 49/96/3
