# This file uses centimeters as units for non-parametric coordinates.

mtllib DigiFrame2.mtl
g default
v 1945.343994 171.517197 256.109070
v 1945.343994 457.735352 256.109070
v 1895.162109 457.735352 508.247131
v 1895.162109 171.517197 508.247131
v 1962.130371 171.517197 -0.425476
v 1962.130371 457.735352 -0.425476
vt 0.500000 0.000000
vt 1.000000 0.000000
vt 1.000000 1.000000
vt 0.500000 0.999999
vt 0.000000 0.000000
vt 0.000000 1.000000
vn -0.991445 0.000000 -0.130527
vn -0.980764 0.000000 -0.195197
vn -0.980764 0.000000 -0.195197
vn -0.991445 0.000000 -0.130527
vn -0.997866 0.000000 -0.065296
vn -0.997866 0.000000 -0.065296
s 1
g DigiFrame2 DigitalFrames
usemtl lambert5SG
f 1/1/1 4/2/2 3/3/3 2/4/4
f 5/5/5 1/1/1 2/4/4 6/6/6
