# This file uses centimeters as units for non-parametric coordinates.

mtllib DigiFrame9.mtl
g default
v -1810.518677 171.517212 -749.940918
v -1810.518677 598.594849 -749.940918
v -1696.866821 598.594849 -980.360596
v -1696.866821 171.517212 -980.360596
v -1892.916016 171.517212 -507.205200
v -1892.916016 598.594849 -507.205200
v -1943.020630 171.517212 -255.214294
v -1943.020630 598.594849 -255.214294
vt 0.666413 0.000000
vt 1.000000 0.000000
vt 1.000000 1.000000
vt 0.666413 1.000000
vt 0.333586 0.000000
vt 0.333586 1.000000
vt 0.000000 0.000000
vt 0.000000 1.000000
vn 0.923837 0.000000 0.382786
vn 0.896840 0.000000 0.442356
vn 0.896840 0.000000 0.442356
vn 0.923837 0.000000 0.382786
vn 0.965955 0.000000 0.258710
vn 0.965955 0.000000 0.258710
vn 0.980800 0.000000 0.195017
vn 0.980800 0.000000 0.195017
s 1
g DigiFrame9 DigitalFrames
usemtl lambert5SG
f 1/1/1 4/2/2 3/3/3 2/4/4
f 5/5/5 1/1/1 2/4/4 6/6/6
f 7/7/7 5/5/5 6/6/6 8/8/8
