# This file uses centimeters as units for non-parametric coordinates.

mtllib DigiFrame3.mtl
g default
v 1697.141479 171.517212 979.845215
v 1697.141479 598.594849 979.845215
v 1810.758911 598.594849 749.408936
v 1810.758911 171.517212 749.408936
v 1554.726929 171.517212 1192.984009
v 1554.726929 598.594849 1192.984009
v 1385.311035 171.517212 1386.136841
v 1385.311035 598.594849 1386.136841
vt 0.333586 0.000000
vt 0.333586 1.000000
vt 0.000000 1.000000
vt 0.000000 0.000000
vt 0.666414 0.000000
vt 0.666414 1.000000
vt 1.000000 0.000000
vt 1.000000 1.000000
vn -0.866081 0.000000 -0.499903
vn -0.866081 0.000000 -0.499903
vn -0.896905 0.000000 -0.442223
vn -0.896905 0.000000 -0.442223
vn -0.793286 0.000000 -0.608850
vn -0.793286 0.000000 -0.608850
vn -0.751791 0.000000 -0.659402
vn -0.751791 0.000000 -0.659402
s 1
g DigiFrame3 DigitalFrames
usemtl lambert5SG
f 1/1/1 2/2/2 3/3/3 4/4/4
f 5/5/5 6/6/6 2/2/2 1/1/1
f 7/7/7 8/8/8 6/6/6 5/5/5
