# This file uses centimeters as units for non-parametric coordinates.

mtllib DigiFrame8.mtl
g default
v -1945.343872 171.517197 256.109131
v -1945.343872 457.735352 256.109131
v -1895.161987 457.735352 508.247437
v -1895.161987 171.517197 508.247437
v -1962.130249 171.517197 -0.425476
v -1962.130249 457.735352 -0.425476
vt 0.500001 0.000000
vt 0.500000 1.000000
vt 0.000000 1.000000
vt 0.000000 0.000000
vt 1.000000 0.000000
vt 1.000000 1.000000
vn 0.991445 0.000000 -0.130527
vn 0.991445 0.000000 -0.130527
vn 0.980764 0.000000 -0.195197
vn 0.980764 0.000000 -0.195197
vn 0.997866 0.000000 -0.065295
vn 0.997866 0.000000 -0.065295
s 1
g DigiFrame8 DigitalFrames
usemtl lambert5SG
f 1/1/1 2/2/2 3/3/3 4/4/4
f 5/5/5 6/6/6 2/2/2 1/1/1
