# This file uses centimeters as units for non-parametric coordinates.

mtllib DigiFrame6.mtl
g default
v -981.065369 171.517197 1699.254639
v -981.065369 457.735291 1699.254639
v -750.482056 457.735291 1812.934692
v -750.482056 171.517197 1812.934692
v -1194.806885 171.517197 1556.403687
v -1194.806885 457.735291 1556.403687
vt 0.500000 0.000000
vt 0.500000 0.999999
vt 0.000000 0.999999
vt 0.000000 0.000000
vt 1.000000 0.000001
vt 1.000000 1.000000
vn 0.500000 0.000000 -0.866025
vn 0.500000 0.000000 -0.866025
vn 0.442192 0.000000 -0.896921
vn 0.442192 0.000000 -0.896921
vn 0.555660 0.000000 -0.831410
vn 0.555660 0.000000 -0.831410
s 1
g DigiFrame6 DigitalFrames
usemtl lambert5SG
f 1/1/1 2/2/2 3/3/3 4/4/4
f 5/5/5 6/6/6 2/2/2 1/1/1
