# This file uses centimeters as units for non-parametric coordinates.

mtllib Floor.mtl
g default
v 1951.777954 0.000000 -256.956146
v 1901.540771 0.000000 -509.515991
v 1818.767578 0.000000 -753.357849
v 1704.874878 0.000000 -984.309570
v 1561.811279 0.000000 -1198.419434
v 1392.024658 0.000000 -1392.024048
v 1198.419922 0.000000 -1561.810669
v 984.310059 0.000000 -1704.874390
v 753.358337 0.000000 -1818.767212
v 509.516449 0.000000 -1901.540405
v 256.956665 0.000000 -1951.777710
v 0.000264 0.000000 -1968.619385
v -256.956116 0.000000 -1951.777710
v -509.515930 0.000000 -1901.540405
v -753.357788 0.000000 -1818.767212
v -984.309448 0.000000 -1704.874512
v -1198.419312 0.000000 -1561.810913
v -1392.023926 0.000000 -1392.024292
v -1561.810547 0.000000 -1198.419678
v -1704.874146 0.000000 -984.309814
v -1818.766846 0.000000 -753.358215
v -1901.540039 0.000000 -509.516418
v -1951.777222 0.000000 -256.956635
v -1968.618896 0.000000 -0.000293
v -1951.777100 0.000000 256.956055
v -1901.539795 0.000000 509.515747
v -1818.766479 0.000000 753.357483
v -1704.873779 0.000000 984.309082
v -1561.810181 0.000000 1198.418823
v -1392.023682 0.000000 1392.023315
v -1198.419067 0.000000 1561.809814
v -984.309326 0.000000 1704.873413
v -753.357727 0.000000 1818.765991
v -509.515991 0.000000 1901.539063
v -256.956360 0.000000 1951.776245
v -0.000147 0.000000 1968.617920
v 256.956055 0.000000 1951.776123
v 509.515656 0.000000 1901.538818
v 753.357239 0.000000 1818.765625
v 984.308777 0.000000 1704.872925
v 1198.418335 0.000000 1561.809448
v 1392.022827 0.000000 1392.022949
v 1561.809326 0.000000 1198.418457
v 1704.872681 0.000000 984.308777
v 1818.765381 0.000000 753.357300
v 1901.538330 0.000000 509.515686
v 1951.775513 0.000000 256.956116
v 1968.617310 0.000000 0.000000
v 0.000000 0.000000 0.000000
vt 0.167231 0.014408
vt 0.198102 0.006128
vt 0.229793 0.001957
vt 0.261756 0.001953
vt 0.293448 0.006127
vt 0.324321 0.014395
vt 0.353853 0.026626
vt 0.381535 0.042606
vt 0.406895 0.062066
vt 0.429496 0.084661
vt 0.448958 0.110023
vt 0.464941 0.137703
vt 0.477173 0.167231
vt 0.485448 0.198106
vt 0.489622 0.229796
vt 0.489623 0.261758
vt 0.485453 0.293449
vt 0.477183 0.324326
vt 0.464950 0.353854
vt 0.448972 0.381540
vt 0.429514 0.406896
vt 0.406914 0.429501
vt 0.381557 0.448960
vt 0.353876 0.464943
vt 0.324346 0.477176
vt 0.293472 0.485451
vt 0.261782 0.489625
vt 0.229817 0.489624
vt 0.198129 0.485458
vt 0.167254 0.477185
vt 0.137722 0.464953
vt 0.110041 0.448975
vt 0.084681 0.429518
vt 0.062077 0.406916
vt 0.042619 0.381560
vt 0.026634 0.353876
vt 0.014404 0.324353
vt 0.006126 0.293472
vt 0.001953 0.261784
vt 0.001953 0.229824
vt 0.006121 0.198128
vt 0.014394 0.167257
vt 0.026625 0.137727
vt 0.042603 0.110042
vt 0.062061 0.084685
vt 0.084660 0.062079
vt 0.110020 0.042624
vt 0.137698 0.026636
vt 0.254554 0.241467
vn 0.000000 1.000000 0.000000
vn 0.000000 1.000000 0.000000
vn 0.000000 1.000000 0.000000
vn 0.000000 1.000000 0.000000
vn 0.000000 1.000000 0.000000
vn 0.000000 1.000000 0.000000
vn 0.000000 1.000000 0.000000
vn 0.000000 1.000000 0.000000
vn 0.000000 1.000000 0.000000
vn 0.000000 1.000000 0.000000
vn 0.000000 1.000000 0.000000
vn 0.000000 1.000000 0.000000
vn 0.000000 1.000000 0.000000
vn 0.000000 1.000000 0.000000
vn 0.000000 1.000000 0.000000
vn 0.000000 1.000000 0.000000
vn 0.000000 1.000000 0.000000
vn 0.000000 1.000000 0.000000
vn 0.000000 1.000000 0.000000
vn 0.000000 1.000000 0.000000
vn 0.000000 1.000000 0.000000
vn 0.000000 1.000000 0.000000
vn 0.000000 1.000000 0.000000
vn 0.000000 1.000000 0.000000
vn 0.000000 1.000000 0.000000
vn 0.000000 1.000000 0.000000
vn 0.000000 1.000000 0.000000
vn 0.000000 1.000000 0.000000
vn 0.000000 1.000000 0.000000
vn 0.000000 1.000000 0.000000
vn 0.000000 1.000000 0.000000
vn 0.000000 1.000000 0.000000
vn 0.000000 1.000000 0.000000
vn 0.000000 1.000000 0.000000
vn 0.000000 1.000000 0.000000
vn 0.000000 1.000000 0.000000
vn 0.000000 1.000000 0.000000
vn 0.000000 1.000000 0.000000
vn 0.000000 1.000000 0.000000
vn 0.000000 1.000000 0.000000
vn 0.000000 1.000000 0.000000
vn 0.000000 1.000000 0.000000
vn 0.000000 1.000000 0.000000
vn 0.000000 1.000000 0.000000
vn 0.000000 1.000000 0.000000
vn 0.000000 1.000000 0.000000
vn 0.000000 1.000000 0.000000
vn 0.000000 1.000000 0.000000
vn 0.000000 1.000000 0.000000
s 1
g Floor BakeGeo_Separate
usemtl VRayMtl3SG
f 2/2/1 49/49/2 1/1/3
f 3/3/4 49/49/2 2/2/1
f 4/4/5 49/49/2 3/3/4
f 5/5/6 49/49/2 4/4/5
f 6/6/7 49/49/2 5/5/6
f 7/7/8 49/49/2 6/6/7
f 8/8/9 49/49/2 7/7/8
f 9/9/10 49/49/2 8/8/9
f 10/10/11 49/49/2 9/9/10
f 11/11/12 49/49/2 10/10/11
f 12/12/13 49/49/2 11/11/12
f 13/13/14 49/49/2 12/12/13
f 14/14/15 49/49/2 13/13/14
f 15/15/16 49/49/2 14/14/15
f 16/16/17 49/49/2 15/15/16
f 17/17/18 49/49/2 16/16/17
f 18/18/19 49/49/2 17/17/18
f 19/19/20 49/49/2 18/18/19
f 20/20/21 49/49/2 19/19/20
f 21/21/22 49/49/2 20/20/21
f 22/22/23 49/49/2 21/21/22
f 23/23/24 49/49/2 22/22/23
f 24/24/25 49/49/2 23/23/24
f 25/25/26 49/49/2 24/24/25
f 26/26/27 49/49/2 25/25/26
f 27/27/28 49/49/2 26/26/27
f 28/28/29 49/49/2 27/27/28
f 29/29/30 49/49/2 28/28/29
f 30/30/31 49/49/2 29/29/30
f 31/31/32 49/49/2 30/30/31
f 32/32/33 49/49/2 31/31/32
f 33/33/34 49/49/2 32/32/33
f 34/34/35 49/49/2 33/33/34
f 35/35/36 49/49/2 34/34/35
f 36/36/37 49/49/2 35/35/36
f 37/37/38 49/49/2 36/36/37
f 38/38/39 49/49/2 37/37/38
f 39/39/40 49/49/2 38/38/39
f 40/40/41 49/49/2 39/39/40
f 41/41/42 49/49/2 40/40/41
f 42/42/43 49/49/2 41/41/42
f 43/43/44 49/49/2 42/42/43
f 44/44/45 49/49/2 43/43/44
f 45/45/46 49/49/2 44/44/45
f 46/46/47 49/49/2 45/45/46
f 47/47/48 49/49/2 46/46/47
f 48/48/49 49/49/2 47/47/48
f 1/1/3 49/49/2 48/48/49
