# This file uses centimeters as units for non-parametric coordinates.

mtllib Stage.mtl
g default
v 179.727570 18.008499 -20.708557
v 178.944550 18.008499 -44.596825
v 172.650803 18.008499 -67.660461
v 160.741013 18.008499 -89.504883
v 144.462357 18.008499 -109.756378
v 124.690247 18.008499 -128.068329
v 100.736557 18.008499 -144.127502
v 73.438423 18.008499 -157.659210
v 66.419899 18.008499 -171.168900
v 48.192406 18.008499 -179.856140
v 24.304152 18.008499 -184.607880
v 0.000073 18.008499 -186.200745
v -24.304008 18.008499 -184.607880
v -48.192265 18.008499 -179.856140
v -66.419762 18.008499 -171.168900
v -73.438301 18.008499 -157.659210
v -100.736443 18.008499 -144.127594
v -124.690140 18.008499 -128.068359
v -144.462219 18.008499 -109.756409
v -160.740891 18.008499 -89.504883
v -172.650711 18.008499 -67.660522
v -178.944397 18.008499 -44.596855
v -179.727478 18.008499 -20.708618
v -184.381836 18.008499 0.882049
v -186.883484 18.008499 24.304089
v -179.856140 18.008499 48.192337
v -172.026962 18.008499 71.255959
v -161.254578 18.008499 93.100357
v -147.722931 18.008499 113.351837
v 147.722900 18.008499 113.351814
v 161.254547 18.008499 93.100342
v 172.026917 18.008499 71.255951
v 179.856049 18.008499 48.192318
v 186.883423 18.008499 24.304094
v 184.381760 18.008499 0.882077
v 336.793701 -0.725187 -45.477737
v 365.580566 -0.725187 -86.716537
v 373.026947 -0.725189 -128.044998
v 363.134216 -0.725189 -183.128204
v 333.417786 -0.725189 -238.653366
v 294.805786 -0.725189 -278.363586
v 261.394226 -0.725189 -304.333740
v 212.633652 -0.725189 -331.889984
v 165.091217 -0.725189 -353.173187
v 115.214188 -0.725189 -370.710022
v 56.693703 -0.725189 -380.798828
v 0.025814 -0.725189 -383.432129
v -56.693481 -0.725189 -380.798828
v -115.213974 -0.725189 -370.710022
v -165.091095 -0.725189 -353.173218
v -212.633606 -0.725189 -331.890015
v -261.394135 -0.725189 -304.333801
v -294.805542 -0.725189 -278.363678
v -333.417542 -0.725189 -238.653442
v -363.134033 -0.725189 -183.128235
v -373.026733 -0.725189 -128.045090
v -365.580322 -0.725187 -86.716621
v -336.793396 -0.725187 -45.477821
v -305.160645 -0.725187 -8.750005
v -271.227142 -0.725187 27.657837
v -231.906998 -0.725187 62.686852
v -197.865875 -0.725187 91.444321
v -158.913895 -0.725185 114.535675
v -135.089401 -0.725185 123.598206
v 135.089340 -0.725185 123.598206
v 158.913788 -0.725185 114.535637
v 197.865784 -0.725187 91.444290
v 231.906830 -0.725187 62.686859
v 271.226929 -0.725187 27.657852
v 305.160431 -0.725187 -8.749954
v 334.971588 18.008499 -46.892540
v 336.793762 15.704570 -45.477737
v 363.402679 18.008499 -87.621597
v 365.580627 15.704570 -86.716553
v 370.686035 18.008497 -128.045654
v 373.026947 15.704570 -128.044998
v 360.931030 18.008497 -182.362274
v 363.134277 15.704570 -183.128174
v 331.539734 18.008497 -237.280014
v 333.417847 15.704567 -238.653381
v 293.265564 18.008497 -276.642731
v 294.805786 15.704570 -278.363586
v 260.113647 18.008497 -302.411072
v 261.394226 15.704570 -304.333801
v 211.593964 18.008497 -329.831207
v 212.633682 15.704570 -331.890015
v 164.236984 18.008497 -351.031342
v 165.091232 15.704570 -353.173187
v 114.632309 18.008497 -368.472382
v 115.214188 15.704570 -370.710022
v 56.443558 18.008497 -378.504089
v 56.693707 15.704564 -380.798889
v 0.025765 18.008497 -381.125732
v 0.025814 15.704570 -383.432129
v -56.443398 18.008497 -378.504150
v -56.693493 15.704563 -380.798920
v -114.632111 18.008497 -368.472473
v -115.213989 15.704570 -370.710022
v -164.236847 18.008497 -351.031372
v -165.091095 15.704570 -353.173218
v -211.593872 18.008497 -329.831238
v -212.633606 15.704570 -331.890076
v -260.113556 18.008497 -302.411072
v -261.394135 15.704570 -304.333801
v -293.265259 18.008497 -276.642853
v -294.805542 15.704570 -278.363708
v -331.539429 18.008497 -237.280060
v -333.417542 15.704570 -238.653442
v -360.930817 18.008497 -182.362335
v -363.134064 15.704570 -183.128220
v -370.685852 18.008497 -128.045746
v -373.026794 15.704570 -128.045090
v -363.402435 18.008499 -87.621681
v -365.580383 15.704570 -86.716621
v -334.971252 18.008499 -46.892612
v -336.793427 15.704571 -45.477829
v -303.444458 18.008499 -10.287783
v -305.160645 15.704573 -8.750003
v -269.614685 18.008499 26.008728
v -271.227112 15.704573 27.657841
v -230.397141 18.008499 60.946404
v -231.907074 15.704570 62.686836
v -196.525833 18.008499 89.560410
v -197.865906 15.704571 91.444321
v -157.909576 18.008503 112.452759
v -158.913940 15.704573 114.535690
v -137.504700 18.008503 121.639282
v -135.089401 14.898685 123.598206
v 135.089355 14.898683 123.598206
v 137.504654 18.008503 121.639282
v 157.909454 18.008503 112.452728
v 158.913849 15.704573 114.535652
v 196.525726 18.008499 89.560379
v 197.865814 15.704570 91.444290
v 230.396942 18.008499 60.946415
v 231.906891 15.704570 62.686844
v 269.614532 18.008499 26.008739
v 271.226959 15.704570 27.657852
v 303.444214 18.008499 -10.287741
v 305.160431 15.704573 -8.749954
vt 0.826519 0.095901
vt 0.825676 0.148592
vt 0.808658 0.142961
vt 0.799798 0.157709
vt 0.806646 0.141505
vt 0.796512 0.157282
vt 0.804831 0.139682
vt 0.792353 0.155608
vt 0.803102 0.137718
vt 0.788274 0.152548
vt 0.801548 0.135542
vt 0.785339 0.149070
vt 0.800221 0.133040
vt 0.783409 0.146107
vt 0.799120 0.130288
vt 0.781348 0.141803
vt 0.797841 0.129516
vt 0.779773 0.137580
vt 0.797066 0.127715
vt 0.778534 0.133164
vt 0.796646 0.125402
vt 0.777811 0.128043
vt 0.796488 0.123061
vt 0.777622 0.123083
vt 0.796650 0.120714
vt 0.777816 0.118122
vt 0.797075 0.118394
vt 0.778550 0.113007
vt 0.797851 0.116586
vt 0.779786 0.108594
vt 0.799130 0.115807
vt 0.781347 0.104363
vt 0.800232 0.113048
vt 0.783405 0.100046
vt 0.801558 0.110535
vt 0.785303 0.097051
vt 0.803110 0.108345
vt 0.788228 0.093543
vt 0.804832 0.106367
vt 0.792312 0.090457
vt 0.806628 0.104536
vt 0.796478 0.088747
vt 0.808618 0.103073
vt 0.799760 0.088285
vt 0.810796 0.102004
vt 0.803655 0.089126
vt 0.812603 0.100613
vt 0.807555 0.090365
vt 0.814628 0.099243
vt 0.811670 0.091819
vt 0.817058 0.098590
vt 0.816011 0.093610
vt 0.819441 0.097968
vt 0.819756 0.095058
vt 0.821842 0.097572
vt 0.823530 0.096686
vt 0.824201 0.097359
vt 0.825435 0.097568
vt 0.822063 0.148522
vt 0.824432 0.148775
vt 0.823740 0.149434
vt 0.819645 0.148091
vt 0.819905 0.150990
vt 0.817231 0.147442
vt 0.816120 0.152389
vt 0.814756 0.146775
vt 0.811753 0.154152
vt 0.812697 0.145406
vt 0.807628 0.155603
vt 0.810862 0.144022
vt 0.803711 0.156855
vt 0.803937 0.158224
vt 0.804583 0.167686
vt 0.799699 0.158915
vt 0.798946 0.168037
vt 0.796151 0.158517
vt 0.794075 0.167394
vt 0.791727 0.156783
vt 0.787802 0.165239
vt 0.787405 0.153585
vt 0.781561 0.161157
vt 0.784268 0.149963
vt 0.777070 0.156478
vt 0.782234 0.146864
vt 0.774270 0.152471
vt 0.780054 0.142418
vt 0.771267 0.146890
vt 0.778428 0.138061
vt 0.769168 0.141469
vt 0.777175 0.133484
vt 0.767626 0.135829
vt 0.776401 0.128202
vt 0.766589 0.129386
vt 0.776180 0.123095
vt 0.766281 0.123184
vt 0.776401 0.117985
vt 0.766587 0.116986
vt 0.777189 0.112709
vt 0.767584 0.110558
vt 0.778427 0.108138
vt 0.769120 0.104936
vt 0.780042 0.103776
vt 0.771205 0.099551
vt 0.782216 0.099321
vt 0.774115 0.093999
vt 0.784207 0.096179
vt 0.776901 0.090050
vt 0.787327 0.092517
vt 0.781250 0.085335
vt 0.791667 0.089302
vt 0.787288 0.081041
vt 0.796109 0.087535
vt 0.793475 0.078648
vt 0.799659 0.087069
vt 0.798387 0.077905
vt 0.803865 0.087759
vt 0.804195 0.078089
vt 0.807919 0.088956
vt 0.809479 0.079119
vt 0.812103 0.090430
vt 0.814564 0.080640
vt 0.816524 0.092208
vt 0.819645 0.082507
vt 0.820307 0.093714
vt 0.823767 0.084168
vt 0.824142 0.095380
vt 0.827842 0.085880
vt 0.830073 0.086831
vt 0.826723 0.150275
vt 0.830073 0.159314
vt 0.824334 0.150748
vt 0.827820 0.160200
vt 0.820436 0.152336
vt 0.823762 0.161811
vt 0.816631 0.153787
vt 0.819662 0.163379
vt 0.812191 0.155533
vt 0.814673 0.165162
vt 0.808004 0.157004
vt 0.809707 0.166639
vn 0.019531 0.999695 0.015139
vn 0.784773 0.119383 0.608177
vn 0.909783 0.113356 0.399305
vn 0.020334 0.999753 0.008936
vn 0.023418 0.999505 0.020995
vn 0.739115 0.120987 0.662624
vn 0.993119 0.114356 -0.025239
vn 0.017612 0.999845 -0.000453
vn 0.935174 0.115284 -0.334902
vn 0.016172 0.999853 -0.005793
vn 0.807023 0.115950 -0.579025
vn 0.013229 0.999867 -0.009493
vn 0.669063 0.118600 -0.733682
vn 0.009401 0.999903 -0.010310
vn 0.541954 0.118559 -0.832003
vn 0.007759 0.999899 -0.011913
vn 0.449048 0.119734 -0.885449
vn 0.007056 0.999878 -0.013913
vn 0.367505 0.119950 -0.922254
vn 0.006496 0.999846 -0.016301
vn 0.245230 0.118186 -0.962234
vn 0.004412 0.999840 -0.017311
vn 0.108995 0.119064 -0.986886
vn 0.001908 0.999849 -0.017283
vn 0.000001 0.119748 -0.992804
vn 0.000000 0.999854 -0.017092
vn -0.108947 0.119060 -0.986892
vn -0.001908 0.999849 -0.017286
vn -0.245231 0.118182 -0.962234
vn -0.004412 0.999840 -0.017311
vn -0.367504 0.119949 -0.922254
vn -0.006496 0.999846 -0.016301
vn -0.449048 0.119735 -0.885449
vn -0.007056 0.999878 -0.013913
vn -0.541955 0.118561 -0.832003
vn -0.007759 0.999899 -0.011913
vn -0.669064 0.118602 -0.733681
vn -0.009401 0.999903 -0.010310
vn -0.807023 0.115952 -0.579025
vn -0.013229 0.999867 -0.009493
vn -0.935174 0.115285 -0.334903
vn -0.016172 0.999852 -0.005793
vn -0.993119 0.114355 -0.025239
vn -0.017612 0.999845 -0.000453
vn -0.909783 0.113355 0.399307
vn -0.020334 0.999753 0.008936
vn -0.784775 0.119383 0.608174
vn -0.019531 0.999695 0.015139
vn -0.739118 0.120987 0.662621
vn -0.023418 0.999505 0.020995
vn -0.693142 0.119832 0.710771
vn -0.030163 0.999066 0.030930
vn -0.651304 0.121253 0.749067
vn -0.037391 0.998375 0.043002
vn -0.575050 0.118141 0.809543
vn -0.055379 0.995418 0.077951
vn -0.455022 0.104742 0.884299
vn -0.107195 0.972399 0.207242
vn -0.356411 0.043521 0.933315
vn -0.286422 0.638376 0.714450
vn 0.286426 0.638373 0.714451
vn 0.356413 0.043520 0.933315
vn 0.455023 0.104742 0.884298
vn 0.107196 0.972399 0.207242
vn 0.575050 0.118141 0.809543
vn 0.055379 0.995418 0.077951
vn 0.651304 0.121253 0.749067
vn 0.037391 0.998375 0.043002
vn 0.693142 0.119832 0.710770
vn 0.030163 0.999066 0.030930
vn -0.000000 1.000000 0.000000
vn 0.000000 1.000000 0.000000
vn 0.000000 1.000000 -0.000000
vn 0.000000 1.000000 -0.000000
vn 0.000000 1.000000 0.000000
vn 0.000000 1.000000 -0.000000
vn 0.000000 1.000000 -0.000000
vn 0.000000 1.000000 0.000000
vn 0.000000 1.000000 -0.000000
vn 0.000000 1.000000 -0.000000
vn 0.000000 1.000000 -0.000000
vn -0.000000 1.000000 -0.000000
vn -0.000000 1.000000 -0.000000
vn -0.000000 1.000000 -0.000000
vn -0.000000 1.000000 -0.000000
vn -0.000000 1.000000 0.000000
vn -0.000000 1.000000 -0.000000
vn -0.000000 1.000000 -0.000000
vn -0.000000 1.000000 -0.000000
vn -0.000000 1.000000 -0.000000
vn -0.000000 1.000000 0.000000
vn 0.000000 1.000000 0.000000
vn 0.000000 1.000000 -0.000000
vn 0.000000 1.000000 -0.000000
vn 0.000000 1.000000 -0.000000
vn 0.000000 1.000000 -0.000000
vn 0.000000 1.000000 -0.000000
vn 0.000000 1.000000 -0.000000
vn 0.000000 1.000000 -0.000000
vn -0.000000 1.000000 -0.000000
vn -0.000000 1.000000 -0.000000
vn -0.000000 1.000000 -0.000000
vn 0.000000 1.000000 0.000000
vn 0.000000 1.000000 -0.000000
vn 0.000000 1.000000 -0.000000
vn 0.790434 -0.000003 0.612547
vn 0.915709 -0.000002 0.401843
vn 0.999678 -0.000002 -0.025366
vn 0.941455 -0.000003 -0.337138
vn 0.812508 -0.000002 -0.582950
vn 0.673820 -0.000001 -0.738895
vn 0.545809 -0.000002 -0.837909
vn 0.452303 -0.000002 -0.891864
vn 0.370176 -0.000001 -0.928962
vn 0.246961 -0.000001 -0.969026
vn 0.109779 -0.000002 -0.993956
vn 0.000001 -0.000002 -1.000000
vn -0.109730 -0.000003 -0.993961
vn -0.246961 -0.000002 -0.969026
vn -0.370175 -0.000001 -0.928962
vn -0.452303 -0.000002 -0.891864
vn -0.545810 -0.000001 -0.837909
vn -0.673821 -0.000001 -0.738895
vn -0.812508 -0.000001 -0.582950
vn -0.941455 -0.000002 -0.337138
vn -0.999678 -0.000004 -0.025365
vn -0.915708 -0.000003 0.401844
vn -0.790437 -0.000001 0.612544
vn -0.744588 -0.000000 0.667525
vn -0.698173 -0.000000 0.715929
vn -0.656144 -0.000001 0.754636
vn -0.579098 -0.000001 0.815258
vn -0.456749 -0.000001 0.889596
vn -0.355533 -0.000001 0.934664
vn 0.355535 -0.000001 0.934663
vn 0.456750 -0.000002 0.889595
vn 0.579098 -0.000002 0.815258
vn 0.656144 -0.000002 0.754636
vn 0.698173 -0.000002 0.715929
vn 0.744585 -0.000002 0.667528
s 1
g Stage BakeGeo_Separate
usemtl blinn2SG
f 71/71/1 72/72/2 74/74/3 73/4/4
f 72/72/2 71/71/1 139/69/5 140/139/6
f 73/4/4 74/74/3 76/76/7 75/6/8
f 75/6/8 76/76/7 78/78/9 77/8/10
f 77/8/10 78/78/9 80/80/11 79/10/12
f 79/10/12 80/80/11 82/82/13 81/12/14
f 81/12/14 82/82/13 84/84/15 83/14/16
f 83/14/16 84/84/15 86/86/17 85/16/18
f 85/16/18 86/86/17 88/88/19 87/18/20
f 87/18/20 88/88/19 90/90/21 89/20/22
f 89/20/22 90/90/21 92/92/23 91/22/24
f 91/22/24 92/92/23 94/94/25 93/24/26
f 93/24/26 94/94/25 96/96/27 95/26/28
f 95/26/28 96/96/27 98/98/29 97/28/30
f 97/28/30 98/98/29 100/100/31 99/30/32
f 99/30/32 100/100/31 102/102/33 101/32/34
f 101/32/34 102/102/33 104/104/35 103/34/36
f 103/34/36 104/104/35 106/106/37 105/36/38
f 105/36/38 106/106/37 108/108/39 107/38/40
f 107/38/40 108/108/39 110/110/41 109/40/42
f 109/40/42 110/110/41 112/112/43 111/42/44
f 111/42/44 112/112/43 114/114/45 113/44/46
f 113/44/46 114/114/45 116/116/47 115/46/48
f 115/46/48 116/116/47 118/118/49 117/48/50
f 117/48/50 118/118/49 120/120/51 119/50/52
f 119/50/52 120/120/51 122/122/53 121/52/54
f 121/52/54 122/122/53 124/124/55 123/54/56
f 123/54/56 124/124/55 126/126/57 125/56/58
f 125/56/58 126/126/57 128/1/59 127/58/60
f 130/2/61 129/129/62 132/131/63 131/61/64
f 131/61/64 132/131/63 134/133/65 133/63/66
f 133/63/66 134/133/65 136/135/67 135/65/68
f 135/65/68 136/135/67 138/137/69 137/67/70
f 137/67/70 138/137/69 140/139/6 139/69/5
f 2/3/71 1/70/72 71/71/1 73/4/4
f 3/5/73 2/3/71 73/4/4 75/6/8
f 4/7/74 3/5/73 75/6/8 77/8/10
f 5/9/75 4/7/74 77/8/10 79/10/12
f 6/11/76 5/9/75 79/10/12 81/12/14
f 7/13/77 6/11/76 81/12/14 83/14/16
f 8/15/78 7/13/77 83/14/16 85/16/18
f 9/17/79 8/15/78 85/16/18 87/18/20
f 10/19/80 9/17/79 87/18/20 89/20/22
f 11/21/81 10/19/80 89/20/22 91/22/24
f 12/23/82 11/21/81 91/22/24 93/24/26
f 13/25/83 12/23/82 93/24/26 95/26/28
f 14/27/84 13/25/83 95/26/28 97/28/30
f 15/29/85 14/27/84 97/28/30 99/30/32
f 16/31/86 15/29/85 99/30/32 101/32/34
f 17/33/87 16/31/86 101/32/34 103/34/36
f 18/35/88 17/33/87 103/34/36 105/36/38
f 19/37/89 18/35/88 105/36/38 107/38/40
f 20/39/90 19/37/89 107/38/40 109/40/42
f 21/41/91 20/39/90 109/40/42 111/42/44
f 22/43/92 21/41/91 111/42/44 113/44/46
f 23/45/93 22/43/92 113/44/46 115/46/48
f 24/47/94 23/45/93 115/46/48 117/48/50
f 25/49/95 24/47/94 117/48/50 119/50/52
f 26/51/96 25/49/95 119/50/52 121/52/54
f 27/53/97 26/51/96 121/52/54 123/54/56
f 28/55/98 27/53/97 123/54/56 125/56/58
f 29/57/99 28/55/98 125/56/58 127/58/60
f 31/59/100 30/60/101 130/2/61 131/61/64
f 32/62/102 31/59/100 131/61/64 133/63/66
f 33/64/103 32/62/102 133/63/66 135/65/68
f 34/66/104 33/64/103 135/65/68 137/67/70
f 35/68/105 34/66/104 137/67/70 139/69/5
f 1/70/72 35/68/105 139/69/5 71/71/1
f 74/74/3 72/72/2 36/73/106 37/75/107
f 76/76/7 74/74/3 37/75/107 38/77/108
f 78/78/9 76/76/7 38/77/108 39/79/109
f 80/80/11 78/78/9 39/79/109 40/81/110
f 82/82/13 80/80/11 40/81/110 41/83/111
f 84/84/15 82/82/13 41/83/111 42/85/112
f 86/86/17 84/84/15 42/85/112 43/87/113
f 88/88/19 86/86/17 43/87/113 44/89/114
f 90/90/21 88/88/19 44/89/114 45/91/115
f 92/92/23 90/90/21 45/91/115 46/93/116
f 94/94/25 92/92/23 46/93/116 47/95/117
f 96/96/27 94/94/25 47/95/117 48/97/118
f 98/98/29 96/96/27 48/97/118 49/99/119
f 100/100/31 98/98/29 49/99/119 50/101/120
f 102/102/33 100/100/31 50/101/120 51/103/121
f 104/104/35 102/102/33 51/103/121 52/105/122
f 106/106/37 104/104/35 52/105/122 53/107/123
f 108/108/39 106/106/37 53/107/123 54/109/124
f 110/110/41 108/108/39 54/109/124 55/111/125
f 112/112/43 110/110/41 55/111/125 56/113/126
f 114/114/45 112/112/43 56/113/126 57/115/127
f 116/116/47 114/114/45 57/115/127 58/117/128
f 118/118/49 116/116/47 58/117/128 59/119/129
f 120/120/51 118/118/49 59/119/129 60/121/130
f 122/122/53 120/120/51 60/121/130 61/123/131
f 124/124/55 122/122/53 61/123/131 62/125/132
f 126/126/57 124/124/55 62/125/132 63/127/133
f 128/1/59 126/126/57 63/127/133 64/128/134
f 132/131/63 129/129/62 65/130/135 66/132/136
f 134/133/65 132/131/63 66/132/136 67/134/137
f 136/135/67 134/133/65 67/134/137 68/136/138
f 138/137/69 136/135/67 68/136/138 69/138/139
f 140/139/6 138/137/69 69/138/139 70/140/140
f 72/72/2 140/139/6 70/140/140 36/73/106
