# This file uses centimeters as units for non-parametric coordinates.

mtllib StageFloor.mtl
g default
v 119.299553 2.801824 -68.877632
v 68.877632 2.801824 -119.299553
v 0.000000 2.801824 -137.755264
v -68.877632 2.801824 -119.299553
v -119.299553 2.801824 -68.877632
v -137.755264 2.801824 0.000000
v -119.299553 2.801824 68.877632
v -68.877632 2.801824 119.299553
v 0.000000 2.801824 137.755264
v 68.877632 2.801824 119.299553
v 119.299553 2.801824 68.877632
v 137.755264 2.801824 0.000000
v 0.000000 2.801824 0.000000
vt 0.035144 0.006379
vt 0.030718 0.014044
vt 0.030718 0.022895
vt 0.035144 0.030560
vt 0.042809 0.034986
vt 0.051660 0.034986
vt 0.059326 0.030560
vt 0.063751 0.022895
vt 0.063751 0.014044
vt 0.059326 0.006379
vt 0.051660 0.001953
vt 0.042809 0.001953
vt 0.046574 0.018647
vn 0.000000 1.000000 0.000000
vn 0.000000 1.000000 -0.000000
vn 0.000000 1.000000 0.000000
vn 0.000000 1.000000 0.000000
vn 0.000000 1.000000 -0.000000
vn 0.000000 1.000000 0.000000
vn 0.000000 1.000000 0.000000
vn 0.000000 1.000000 0.000000
vn 0.000000 1.000000 0.000000
vn 0.000000 1.000000 0.000000
vn 0.000000 1.000000 0.000000
vn 0.000000 1.000000 -0.000000
vn 0.000000 1.000000 0.000000
s 1
g StageFloor BakeGeo_Separate
usemtl blinn3SG
f 1/11/1 2/10/2 13/13/3
f 2/10/2 3/9/4 13/13/3
f 3/9/4 4/8/5 13/13/3
f 4/8/5 5/7/6 13/13/3
f 5/7/6 6/6/7 13/13/3
f 6/6/7 7/5/8 13/13/3
f 7/5/8 8/4/9 13/13/3
f 8/4/9 9/3/10 13/13/3
f 9/3/10 10/2/11 13/13/3
f 10/2/11 11/1/12 13/13/3
f 11/1/12 12/12/13 13/13/3
f 12/12/13 1/11/1 13/13/3
