# This file uses centimeters as units for non-parametric coordinates.

g default
v 658.329529 66.373413 1767.583740
v 664.514587 66.373299 1765.021729
v 664.518738 47.404850 1765.018066
v 658.325806 47.404850 1767.583740
v 614.599976 42.670986 1661.596191
v 620.784973 42.670879 1659.034180
v 620.789185 23.702425 1659.030518
v 614.596252 23.702425 1661.596191
v 702.059143 90.075844 1873.571289
v 708.244080 90.075729 1871.009277
v 708.248230 71.107277 1871.005615
v 702.055359 71.107277 1873.571289
v 745.788635 113.778267 1979.558838
v 751.973694 113.778152 1976.996826
v 751.977844 94.809700 1976.992920
v 745.784912 94.809700 1979.558838
v 570.870422 18.968561 1555.608643
v 577.055481 18.968451 1553.046631
v 577.058777 0.000000 1550.334839
v 570.865662 -0.000000 1552.900024
v 0.000000 23.702374 1661.589844
v -0.000000 42.664761 1661.596191
v 0.000000 47.404797 1767.577393
v 0.000000 66.367180 1767.583740
v 1619.468262 32.707016 662.434509
v 1624.910645 28.915863 662.388733
v 1550.914795 28.901064 590.157654
v 1547.071777 32.692764 591.758850
v 0.000000 113.772034 1979.558838
v 0.000000 94.809647 1979.552490
v -0.000000 18.962334 1555.608643
v 0.000002 -0.000000 1552.900024
v 0.000000 90.069611 1873.571289
v 0.000000 71.107224 1873.564941
v 1549.128662 26.385178 588.371277
v 1543.722900 27.952826 588.404175
v 1619.274170 51.666763 662.557068
v 1624.683105 50.103500 662.526550
v 1549.276611 -0.000003 585.511536
v 1543.881348 -0.000012 585.533508
v 1770.375977 99.094627 810.861511
v 1770.571045 80.134880 810.739624
v 1845.926758 122.808670 885.013794
v 1846.121826 103.848892 884.891724
v -745.788635 113.778267 1979.558838
v -745.784912 94.809700 1979.558838
v -751.977844 94.809700 1976.992920
v -751.973694 113.778152 1976.996826
v -702.059143 90.075844 1873.571289
v -702.055359 71.107277 1873.571289
v -708.248230 71.107277 1871.005615
v -708.244080 90.075729 1871.009277
v -614.599976 42.670986 1661.596191
v -614.596252 23.702425 1661.596191
v -620.789185 23.702425 1659.030518
v -620.784973 42.670879 1659.034180
v 1776.012695 76.343781 810.692444
v 1702.012207 76.342995 738.456970
v 1698.174561 80.120636 740.063782
v 1700.234131 73.817200 736.678284
v 1694.824951 75.380692 736.709351
v 1775.784912 97.531090 810.830017
v 1695.019897 56.420959 736.587280
v 1700.461914 52.629799 736.540833
v 1626.461182 52.629318 664.305115
v 1622.623047 56.406677 665.911072
v 1924.349365 127.567688 961.763733
v 1927.075439 123.776169 959.061340
v 1853.116699 123.759193 886.762878
v 1849.295654 127.548553 888.393738
v 1851.335693 121.245094 884.981750
v 1851.563232 100.057770 884.843933
v 1777.562744 100.056747 812.608337
v 1773.725342 103.834633 814.215637
v -570.870422 18.968561 1555.608643
v -570.865662 -0.000000 1552.900024
v -577.058777 -0.000000 1550.334839
v -577.055481 18.968451 1553.046631
v -1619.468262 32.707016 662.434509
v -1619.274170 51.666763 662.557068
v -1770.571045 80.134880 810.739624
v -1770.375977 99.094627 810.861511
v -1846.121826 103.848892 884.891724
v -1845.926758 122.808670 885.013794
v -1543.881348 -0.000012 585.533508
v -1543.722900 27.952826 588.404175
v -1698.174561 80.120636 740.063782
v -1694.824951 75.380692 736.709351
v -1700.234131 73.817200 736.678284
v -1702.012207 76.342995 738.456970
v -1622.623047 56.406677 665.911072
v -1624.683105 50.103500 662.526550
v -1626.461182 52.629318 664.305115
v -1700.461914 52.629799 736.540833
v -1695.019897 56.420959 736.587280
v -1776.012695 76.343781 810.692444
v -1775.784912 97.531090 810.830017
v -1773.725342 103.834633 814.215637
v -1777.562744 100.056747 812.608337
v -1851.563232 100.057770 884.843933
v -664.514587 66.373299 1765.021729
v -664.518738 47.404850 1765.018066
v -1851.335693 121.245094 884.981750
v -1849.295654 127.548553 888.393738
v -1853.116699 123.759193 886.762878
v -1924.349365 127.567688 961.763733
v -1927.075439 123.776169 959.061340
v -1549.276611 -0.000003 585.511536
v -1549.128662 26.385178 588.371277
v -1547.071777 32.692764 591.758850
v -1550.914795 28.901064 590.157654
v -1624.910645 28.915863 662.388733
v -658.325806 47.404850 1767.583740
v -658.329529 66.373413 1767.583740
vt 0.200287 0.906778
vt 0.201084 0.906777
vt 0.201085 0.909221
vt 0.200287 0.909222
vt 0.980030 0.893340
vt 0.980828 0.893340
vt 0.980829 0.895786
vt 0.980030 0.895787
vt 0.980828 0.868751
vt 0.980030 0.868751
vt 0.980030 0.866304
vt 0.980829 0.866304
vt 0.691235 0.920345
vt 0.692030 0.920345
vt 0.692031 0.922786
vt 0.691235 0.922786
vt 0.980827 0.909042
vt 0.980030 0.909042
vt 0.980030 0.906597
vt 0.980828 0.906597
vt 0.752845 0.005918
vt 0.755230 0.005918
vt 0.755230 0.083230
vt 0.752844 0.083230
vt 0.358620 0.086943
vt 0.356235 0.086943
vt 0.356235 0.004137
vt 0.358621 0.004137
vt 0.945945 0.183136
vt 0.945374 0.183711
vt 0.945374 0.168334
vt 0.945944 0.168091
vt 0.188736 0.836807
vt 0.188736 0.743005
vt 0.191121 0.743005
vt 0.191121 0.836807
vt 0.096323 0.940146
vt 0.096322 0.867981
vt 0.098720 0.867982
vt 0.098720 0.940146
vt 0.764397 0.093970
vt 0.764396 0.005664
vt 0.766782 0.005665
vt 0.766782 0.093970
vt 0.716987 0.925583
vt 0.716987 0.926270
vt 0.716602 0.926112
vt 0.716264 0.925286
vt 0.980698 0.799478
vt 0.980030 0.799002
vt 0.980031 0.796658
vt 0.980698 0.796859
vt 0.978926 0.013405
vt 0.978105 0.013160
vt 0.978105 0.010511
vt 0.978926 0.010518
vt 0.955001 0.766168
vt 0.955002 0.607357
vt 0.957837 0.607351
vt 0.957837 0.766191
vt 0.908794 0.212006
vt 0.908795 0.048430
vt 0.911630 0.048425
vt 0.911630 0.212028
vt 0.712413 0.626595
vt 0.712414 0.465549
vt 0.715573 0.465552
vt 0.715573 0.626624
vt 0.200288 0.895898
vt 0.200287 0.893453
vt 0.201086 0.893452
vt 0.201086 0.895898
vt 0.050116 0.901859
vt 0.050115 0.899413
vt 0.050913 0.899413
vt 0.050913 0.901859
vt 0.980031 0.883183
vt 0.980030 0.880736
vt 0.980829 0.880736
vt 0.980829 0.883183
vt 0.743788 0.072028
vt 0.743218 0.072601
vt 0.743218 0.057232
vt 0.743787 0.056991
vt 0.874862 0.927319
vt 0.874862 0.928006
vt 0.874478 0.927848
vt 0.874138 0.927023
vt 0.980688 0.840432
vt 0.980030 0.840234
vt 0.980030 0.837646
vt 0.980689 0.838116
vt 0.945944 0.133126
vt 0.945374 0.133700
vt 0.945374 0.118331
vt 0.945944 0.118089
vt 0.895985 0.007604
vt 0.895317 0.007128
vt 0.895318 0.004784
vt 0.895985 0.004985
vt 0.915293 0.925451
vt 0.915293 0.926138
vt 0.914909 0.925980
vt 0.914570 0.925155
vt 0.945945 0.079571
vt 0.945374 0.079580
vt 0.945374 0.064206
vt 0.945945 0.063969
vt 0.795930 0.928027
vt 0.795930 0.928711
vt 0.795546 0.928556
vt 0.795201 0.927735
vt 0.945944 0.105934
vt 0.945374 0.106507
vt 0.945374 0.091138
vt 0.945944 0.090896
vt 0.980694 0.826766
vt 0.980030 0.826566
vt 0.980030 0.823957
vt 0.980695 0.824431
vt 0.050839 0.925861
vt 0.050839 0.926548
vt 0.050455 0.926390
vt 0.050115 0.925565
vt 0.731666 0.798676
vt 0.731667 0.644633
vt 0.734502 0.644628
vt 0.734502 0.798700
vt 0.980031 0.855048
vt 0.980030 0.852586
vt 0.980834 0.852586
vt 0.980834 0.855048
vt 0.200287 0.882838
vt 0.200288 0.733542
vt 0.203123 0.733539
vt 0.203123 0.882862
vt 0.050115 0.739544
vt 0.052951 0.739519
vt 0.052950 0.888843
vt 0.050115 0.888839
vt 0.929972 0.622064
vt 0.932808 0.622040
vt 0.932807 0.780879
vt 0.929972 0.780874
vt 0.978105 0.037776
vt 0.980941 0.037752
vt 0.980940 0.201354
vt 0.978105 0.201349
vt 0.200287 0.561491
vt 0.203447 0.561462
vt 0.203446 0.722533
vt 0.200287 0.722536
vt 0.200840 0.921450
vt 0.200287 0.921996
vt 0.200287 0.921110
vt 0.200581 0.920820
vt 0.803459 0.004751
vt 0.802902 0.005300
vt 0.802902 0.004408
vt 0.803197 0.004116
vt 0.980030 0.814439
vt 0.980030 0.811829
vt 0.980694 0.811630
vt 0.980695 0.813965
vt 0.945944 0.143522
vt 0.945944 0.158561
vt 0.945374 0.158319
vt 0.945374 0.142948
vt 0.945944 0.039670
vt 0.945944 0.054706
vt 0.945374 0.054464
vt 0.945374 0.039096
vt 0.885691 0.008025
vt 0.885690 0.005669
vt 0.886361 0.005191
vt 0.886361 0.007824
vt 0.697567 0.005028
vt 0.697011 0.005578
vt 0.697011 0.004685
vt 0.697306 0.004393
vt 0.734161 0.047998
vt 0.734161 0.063035
vt 0.733591 0.062793
vt 0.733591 0.047424
vt 0.941524 0.623320
vt 0.944360 0.623296
vt 0.944359 0.777382
vt 0.941524 0.777377
vt 0.980031 0.785658
vt 0.980030 0.783303
vt 0.980701 0.782824
vt 0.980701 0.785456
vt 0.327914 0.005160
vt 0.327356 0.005710
vt 0.327356 0.004822
vt 0.327650 0.004530
vt 0.724535 0.039277
vt 0.724535 0.054876
vt 0.723965 0.054639
vt 0.723965 0.039268
vt 0.978105 0.026321
vt 0.978105 0.023433
vt 0.978926 0.023426
vt 0.978926 0.026076
vt 0.980590 0.920464
vt 0.980030 0.921015
vt 0.980030 0.920119
vt 0.980328 0.919825
vt 0.412068 0.006788
vt 0.412068 0.004169
vt 0.412734 0.003968
vt 0.412735 0.006312
vt 0.945945 0.194663
vt 0.945944 0.209710
vt 0.945374 0.209467
vt 0.945374 0.194088
vt 0.731667 0.891694
vt 0.731666 0.808892
vt 0.734052 0.808892
vt 0.734052 0.891694
vt 0.188736 0.925292
vt 0.188735 0.847986
vt 0.191121 0.847985
vt 0.191121 0.925292
vt 0.851035 0.808322
vt 0.853420 0.808322
vt 0.853420 0.896626
vt 0.851035 0.896627
vt 0.342758 0.004736
vt 0.345143 0.004736
vt 0.345144 0.098537
vt 0.342758 0.098538
vt 0.175259 0.869977
vt 0.177656 0.869977
vt 0.177656 0.942140
vt 0.175259 0.942140
vt 0.050116 0.915052
vt 0.050115 0.912610
vt 0.050913 0.912610
vt 0.050913 0.915052
vn -0.003855 0.000167 -0.999993
vn -0.705166 -0.001354 -0.709041
vn -0.705157 -0.001354 -0.709050
vn -0.003853 0.000167 -0.999993
vn -0.004126 0.000167 -0.999991
vn -0.705100 -0.001331 -0.709107
vn -0.705091 -0.001331 -0.709116
vn -0.004124 0.000167 -0.999992
vn -0.003617 0.000167 -0.999993
vn -0.705229 -0.001363 -0.708979
vn -0.705220 -0.001363 -0.708987
vn -0.003615 0.000167 -0.999994
vn -0.003407 0.000167 -0.999994
vn -0.705288 -0.001352 -0.708920
vn -0.705280 -0.001352 -0.708928
vn -0.003405 0.000167 -0.999994
vn -0.004251 0.141383 -0.989946
vn -0.703021 0.081727 -0.706457
vn -0.703228 0.081685 -0.706256
vn -0.004548 0.141383 -0.989945
vn -0.000000 0.000167 -1.000000
vn -0.000000 0.000167 -1.000000
vn 0.000000 0.000167 -1.000000
vn 0.000000 0.000167 -1.000000
vn -0.688930 0.019128 -0.724576
vn 0.440791 0.639996 -0.629371
vn 0.477703 0.705611 -0.523367
vn 0.477470 0.705518 -0.523706
vn -0.000000 0.000167 -1.000000
vn -0.000000 0.000167 -1.000000
vn 0.000000 0.141384 -0.989955
vn 0.000000 0.141384 -0.989955
vn -0.000000 0.000167 -1.000000
vn -0.000000 0.000167 -1.000000
vn 0.031372 0.170339 -0.984886
vn -0.702043 0.081965 -0.707402
vn -0.704320 -0.000888 -0.709882
vn 0.025950 0.109974 -0.993596
vn 0.010188 0.104927 -0.994428
vn -0.701768 0.081713 -0.707704
vn -0.704498 -0.000947 -0.709706
vn -0.690069 0.017880 -0.723523
vn -0.704579 -0.000946 -0.709625
vn -0.690575 0.017335 -0.723053
vn 0.003407 0.000167 -0.999994
vn 0.003405 0.000167 -0.999994
vn 0.705280 -0.001350 -0.708928
vn 0.705288 -0.001350 -0.708920
vn 0.003617 0.000167 -0.999993
vn 0.003615 0.000167 -0.999994
vn 0.705220 -0.001364 -0.708987
vn 0.705229 -0.001364 -0.708979
vn 0.004126 0.000167 -0.999991
vn 0.004124 0.000167 -0.999992
vn 0.705091 -0.001330 -0.709116
vn 0.705100 -0.001330 -0.709107
vn 0.440350 0.640657 -0.629008
vn 0.477181 0.706302 -0.522911
vn 0.476977 0.706220 -0.523208
vn 0.025853 0.109978 -0.993598
vn -0.704412 -0.000925 -0.709791
vn 0.025741 0.109964 -0.993602
vn -0.689530 0.018478 -0.724021
vn 0.440369 0.640608 -0.629044
vn 0.477205 0.706275 -0.522926
vn 0.476995 0.706191 -0.523230
vn 0.491153 0.711449 -0.502603
vn 0.491153 0.711448 -0.502603
vn 0.477725 0.706342 -0.522360
vn 0.477682 0.706325 -0.522422
vn 0.025792 0.110716 -0.993517
vn 0.440343 0.640676 -0.628993
vn 0.477178 0.706303 -0.522913
vn 0.476978 0.706222 -0.523204
vn 0.004251 0.141383 -0.989946
vn 0.004548 0.141383 -0.989945
vn 0.703228 0.081684 -0.706256
vn 0.703021 0.081726 -0.706457
vn 0.688930 0.019129 -0.724576
vn 0.704320 -0.000887 -0.709882
vn 0.690069 0.017879 -0.723523
vn 0.704498 -0.000948 -0.709706
vn 0.690575 0.017337 -0.723053
vn 0.704579 -0.000944 -0.709625
vn 0.701768 0.081713 -0.707704
vn 0.702043 0.081964 -0.707402
vn -0.476977 0.706220 -0.523208
vn 0.704411 -0.000923 -0.709791
vn -0.025845 0.109978 -0.993598
vn -0.477181 0.706302 -0.522911
vn -0.476997 0.706188 -0.523233
vn -0.025948 0.109973 -0.993596
vn -0.477206 0.706272 -0.522929
vn -0.440370 0.640606 -0.629046
vn 0.689530 0.018480 -0.724021
vn -0.440352 0.640657 -0.629007
vn -0.025754 0.109965 -0.993602
vn -0.476979 0.706221 -0.523205
vn -0.477179 0.706301 -0.522914
vn -0.440344 0.640675 -0.628994
vn 0.705166 -0.001352 -0.709041
vn 0.705157 -0.001352 -0.709050
vn -0.025789 0.110717 -0.993517
vn -0.477682 0.706325 -0.522422
vn -0.477725 0.706342 -0.522360
vn -0.491153 0.711448 -0.502604
vn -0.491153 0.711448 -0.502604
vn -0.010168 0.104929 -0.994428
vn -0.031355 0.170341 -0.984886
vn -0.477469 0.705518 -0.523705
vn -0.477703 0.705611 -0.523366
vn -0.440791 0.639996 -0.629371
vn 0.003853 0.000167 -0.999993
vn 0.003855 0.000167 -0.999993
s 1
g SittingAreaDark Geo
f 1/1/1 2/2/2 3/3/3 4/4/4
f 5/5/5 6/6/6 7/7/7 8/8/8
f 9/9/9 10/10/10 11/11/11 12/12/12
f 13/13/13 14/14/14 15/15/15 16/16/16
f 17/17/17 18/18/18 19/19/19 20/20/20
f 21/21/21 22/22/22 5/23/5 8/24/8
f 23/25/23 24/26/24 1/27/1 4/28/4
f 25/29/25 26/30/26 27/31/27 28/32/28
f 29/33/29 13/34/13 16/35/16 30/36/30
f 31/37/31 17/38/17 20/39/20 32/40/32
f 33/41/33 9/42/9 12/43/12 34/44/34
f 28/45/28 27/46/27 35/47/35 36/48/36
f 26/49/26 25/50/25 37/51/37 38/52/38
f 36/53/36 35/54/35 39/55/39 40/56/40
f 10/57/10 41/58/41 42/59/42 11/60/11
f 14/61/14 43/62/43 44/63/44 15/64/15
f 18/65/18 36/66/36 40/67/40 19/68/19
f 45/69/45 46/70/46 47/71/47 48/72/48
f 49/73/49 50/74/50 51/75/51 52/76/52
f 53/77/53 54/78/54 55/79/55 56/80/56
f 42/81/42 57/82/57 58/83/58 59/84/59
f 59/85/59 58/86/58 60/87/60 61/88/61
f 41/89/41 62/90/62 57/91/57 42/92/42
f 63/93/63 64/94/64 65/95/65 66/96/66
f 64/97/64 63/98/63 61/99/61 60/100/60
f 66/101/66 65/102/65 38/103/38 37/104/37
f 67/105/67 68/106/68 69/107/69 70/108/70
f 70/109/70 69/110/69 71/111/71 43/112/43
f 44/113/44 72/114/72 73/115/73 74/116/74
f 43/117/43 71/118/71 72/119/72 44/120/44
f 74/121/74 73/122/73 62/123/62 41/124/41
f 2/125/2 61/126/61 63/127/63 3/128/3
f 75/129/75 76/130/76 77/131/77 78/132/78
f 6/133/6 37/134/37 25/135/25 7/136/7
f 56/137/56 55/138/55 79/139/79 80/140/80
f 52/141/52 51/142/51 81/143/81 82/144/82
f 48/145/48 47/146/47 83/147/83 84/148/84
f 78/149/78 77/150/77 85/151/85 86/152/86
f 87/153/87 88/154/88 89/155/89 90/156/90
f 91/157/91 80/158/80 92/159/92 93/160/93
f 94/161/94 89/162/89 88/163/88 95/164/95
f 95/165/95 91/166/91 93/167/93 94/168/94
f 81/169/81 87/170/87 90/171/90 96/172/96
f 82/173/82 81/174/81 96/175/96 97/176/97
f 98/177/98 82/178/82 97/179/97 99/180/99
f 83/181/83 98/182/98 99/183/99 100/184/100
f 101/185/101 102/186/102 95/187/95 88/188/88
f 84/189/84 83/190/83 100/191/100 103/192/103
f 104/193/104 84/194/84 103/195/103 105/196/105
f 106/197/106 104/198/104 105/199/105 107/200/107
f 86/201/86 85/202/85 108/203/108 109/204/109
f 110/205/110 86/206/86 109/207/109 111/208/111
f 112/209/112 92/210/92 80/211/80 79/212/79
f 79/213/79 110/214/110 111/215/111 112/216/112
f 23/217/23 113/218/113 114/219/114 24/220/24
f 21/221/21 54/222/54 53/223/53 22/224/22
f 33/225/33 34/226/34 50/227/50 49/228/49
f 29/229/29 30/230/30 46/231/46 45/232/45
f 31/233/31 32/234/32 76/235/76 75/236/75
f 114/237/114 113/238/113 102/239/102 101/240/101
